<svg width="30" height="30" viewBox="0 0 30 30" fill="none" xmlns="http://www.w3.org/2000/svg">
<g clip-path="url(#clip0_1035_4898)">
<rect width="30" height="30" rx="15" fill="white"/>
<path fill-rule="evenodd" clip-rule="evenodd" d="M0 0H40V19.9375H0V0Z" fill="#B20000"/>
<path fill-rule="evenodd" clip-rule="evenodd" d="M0 19.9375H40V30H0V19.9375Z" fill="#429F00"/>
<path fill-rule="evenodd" clip-rule="evenodd" d="M0 0H6.64348V30H0V0Z" fill="white"/>
<path fill-rule="evenodd" clip-rule="evenodd" d="M0.316162 0.508711H0.632485V1.0173H0.316162V0.508711ZM1.26525 0.508711H2.21433V1.0173H1.26525V0.508711ZM1.58128 0H1.8976V0.508594H1.58134L1.58128 0ZM3.1633 0H3.47974V0.508594H3.1633V0ZM4.42848 0.508711H5.37762V1.0173H4.42848V0.508711ZM4.7455 0H5.06182V0.508594H4.7455V0Z" fill="#B20000"/>
<path fill-rule="evenodd" clip-rule="evenodd" d="M0.949159 1.01714H1.58192V1.52574H0.949159V1.01714ZM1.89824 1.01714H2.53101V1.52574H1.89824V1.01714ZM4.11245 1.01714H4.74521V1.52574H4.11245V1.01714ZM5.06153 1.01714H5.69424V1.52574H5.06159L5.06153 1.01714ZM0.632192 1.52574H1.26495V2.03421H0.632192V1.52574ZM2.21433 1.52574H2.84704V2.03421H2.21433V1.52574ZM3.79642 1.52574H4.42906V2.03421H3.79647L3.79642 1.52574ZM5.37762 1.52574H6.01032V2.03421H5.37762V1.52574ZM6.01068 0.508667H6.32694V1.01726H6.01062L6.01068 0.508667ZM0.316162 2.03421H0.948925V2.54269H0.316162V2.03421ZM2.53042 2.03421H3.16313V2.54269H2.53042V2.03421ZM5.69453 2.03421H6.32729V2.54269H5.69453V2.03421ZM0.632192 3.55953H1.26495V4.06812H0.632192V3.55953ZM0.949159 4.06812H1.58192V4.57654H0.949159V4.06812ZM2.21433 3.55953H2.84704V4.06812H2.21433V3.55953ZM1.89824 4.06812H2.53101V4.57654H1.89824V4.06812ZM1.26525 4.57654H2.21433V5.08501H1.26525V4.57654Z" fill="#B20000"/>
<path fill-rule="evenodd" clip-rule="evenodd" d="M1.5813 5.085H1.89762V5.59359H1.58136L1.5813 5.085ZM3.79644 3.55969H4.42908V4.06816H3.7965L3.79644 3.55969ZM4.11247 4.06816H4.74523V4.57658H4.11247V4.06816ZM5.37764 3.55957H6.01035V4.06816H5.37764V3.55957ZM5.06155 4.06816H5.69426V4.57658H5.06161L5.06155 4.06816ZM4.4285 4.57658H5.37764V5.08506H4.4285V4.57658Z" fill="#B20000"/>
<path fill-rule="evenodd" clip-rule="evenodd" d="M4.74543 5.08496H5.06175V5.59355H4.74543V5.08496ZM3.16323 4.57654H3.47967V5.08501H3.16323V4.57654ZM0 4.57654H0.316323V5.08501H0V4.57654ZM6.32663 4.57654H6.64295V5.08501H6.32669L6.32663 4.57654ZM1.5812 7.11892H1.89753V7.6274H1.58126L1.5812 7.11892Z" fill="#B20000"/>
<path fill-rule="evenodd" clip-rule="evenodd" d="M1.26506 7.62744H2.21415V8.13591H1.26506V7.62744ZM0.948975 8.13591H2.53082V8.64439H0.948975V8.13591ZM4.74532 7.11902H5.06164V7.6275H4.74532V7.11902Z" fill="#B20000"/>
<path fill-rule="evenodd" clip-rule="evenodd" d="M4.42836 7.62744H5.37751V8.13592H4.42836V7.62744ZM4.11233 8.13592H5.69412V8.64439H4.11239L4.11233 8.13592ZM4.42836 10.6783H6.01021V11.1868H4.42836V10.6783ZM3.7963 8.64439H6.0108V9.15299H3.7963V8.64439ZM0.63208 8.64439H2.84657V9.15299H0.63208V8.64439ZM0.949047 11.1868H1.89813V11.6953H0.949047V11.1868ZM0.63208 10.6783H2.21387V11.1868H0.632139L0.63208 10.6783ZM5.06142 9.66135H6.64327V10.1698H5.06142V9.66135ZM4.74539 11.1868H5.69442V11.6953H4.74539V11.1868Z" fill="#B20000"/>
<path fill-rule="evenodd" clip-rule="evenodd" d="M1.26517 11.6952H1.5815V12.2038H1.26517V11.6952ZM5.06146 11.6952H5.37778V12.2038H5.06152L5.06146 11.6952ZM0 9.66133H1.58185V10.1698H0V9.66133ZM2.84726 10.6783H3.79634V11.1868H2.84726V10.6783ZM3.16323 11.1868H3.47967V11.6952H3.16323V11.1868ZM2.21426 9.66133H4.42875V10.1698H2.21426V9.66133ZM3.47938 2.0343H4.11214V2.54278H3.47938V2.0343Z" fill="#B20000"/>
<path fill-rule="evenodd" clip-rule="evenodd" d="M2.84717 2.54272H3.79625V3.0512H2.84717V2.54272Z" fill="#B20000"/>
<path fill-rule="evenodd" clip-rule="evenodd" d="M2.53035 3.0512H3.16305V3.55979H2.53035V3.0512ZM3.47938 3.0512H4.11214V3.55979H3.47938V3.0512ZM0 2.54272H0.632763V3.0512H0V2.54272Z" fill="#B20000"/>
<path fill-rule="evenodd" clip-rule="evenodd" d="M0.316088 3.0512H0.948851V3.55979H0.316088V3.0512ZM6.0106 2.54272H6.64331V3.0512H6.0106V2.54272ZM5.69446 3.0512H6.32722V3.55979H5.69446V3.0512ZM0 7.62743H0.316323V8.13591H0V7.62743ZM6.32663 7.62743H6.64295V8.13591H6.32669L6.32663 7.62743ZM2.84726 11.6952H3.79634V12.2038H2.84726V11.6952Z" fill="#B20000"/>
<path fill-rule="evenodd" clip-rule="evenodd" d="M2.53044 12.2036H3.16315V12.7121H2.53044V12.2036ZM3.47947 12.2036H4.11223V12.7121H3.47947V12.2036ZM2.21436 12.7121H2.84706V13.2206H2.21436V12.7121ZM3.79644 12.7121H4.42908V13.2206H3.7965L3.79644 12.7121Z" fill="#B20000"/>
<path fill-rule="evenodd" clip-rule="evenodd" d="M1.89827 13.2205H2.53103V13.7291H1.89827V13.2205ZM4.11247 13.2205H4.74523V13.7291H4.11247V13.2205ZM1.5813 13.7291H2.214V14.2375H1.58136L1.5813 13.7291ZM4.4285 13.7291H5.06138V14.2375H4.4285V13.7291Z" fill="#B20000"/>
<path fill-rule="evenodd" clip-rule="evenodd" d="M0.948975 14.2375H1.89806V14.746H0.948975V14.2375ZM4.74532 14.2375H5.69434V14.746H4.74532V14.2375Z" fill="#B20000"/>
<path fill-rule="evenodd" clip-rule="evenodd" d="M5.37744 13.7291H6.01015V14.2375H5.37744V13.7291ZM5.69435 13.2205H6.32711V13.7291H5.69435V13.2205Z" fill="#B20000"/>
<path fill-rule="evenodd" clip-rule="evenodd" d="M6.01068 12.7122H6.64338V13.2206H6.01068V12.7122ZM0.632192 13.7291H1.26495V14.2376H0.632192V13.7291ZM0.316162 13.2205H0.948925V13.7291H0.316162V13.2205Z" fill="#B20000"/>
<path fill-rule="evenodd" clip-rule="evenodd" d="M0 12.7122H0.632763V13.2207H0V12.7122ZM1.26517 14.746H1.5815V15.2545H1.26517V14.746ZM5.06146 14.746H5.37778V15.2545H5.06152L5.06146 14.746ZM3.16323 13.2206H3.47967V13.7291H3.16323V13.2206ZM2.21426 14.746H2.53058V15.2545H2.21426V14.746ZM4.11237 14.746H4.42869V15.2545H4.11237V14.746ZM3.16323 14.746H3.47967V15.2545H3.16323V14.746ZM0 14.746H0.316323V15.2545H0V14.746ZM6.32663 14.746H6.64295V15.2545H6.32669L6.32663 14.746ZM3.16323 7.62743H3.47967V8.13591H3.16323V7.62743ZM1.5812 2.54272H1.89753V3.0512H1.58126L1.5812 2.54272ZM4.74543 2.54272H5.06175V3.0512H4.74543V2.54272ZM2.84726 6.102H3.79634V6.6106H2.84726V6.102Z" fill="#B20000"/>
<path fill-rule="evenodd" clip-rule="evenodd" d="M2.21436 6.61047H3.16332V7.11907H2.21441L2.21436 6.61047Z" fill="#B20000"/>
<path fill-rule="evenodd" clip-rule="evenodd" d="M2.53037 7.11894H2.84663V7.62742H2.53037V7.11894ZM1.89819 6.10193H2.53096V6.61052H1.89819V6.10193Z" fill="#B20000"/>
<path fill-rule="evenodd" clip-rule="evenodd" d="M2.21436 5.59351H3.16332V6.10198H2.21441L2.21436 5.59351Z" fill="#B20000"/>
<path fill-rule="evenodd" clip-rule="evenodd" d="M2.53027 5.08496H2.84654V5.59355H2.53027V5.08496ZM3.4793 5.5935H4.42833V6.10197H3.47936L3.4793 5.5935Z" fill="#B20000"/>
<path fill-rule="evenodd" clip-rule="evenodd" d="M3.79639 5.08496H4.11271V5.59355H3.79639V5.08496ZM4.11242 6.10191H4.74518V6.61051H4.11242V6.10191Z" fill="#B20000"/>
<path fill-rule="evenodd" clip-rule="evenodd" d="M3.47949 6.61047H4.42852V7.11907H3.47955L3.47949 6.61047Z" fill="#B20000"/>
<path fill-rule="evenodd" clip-rule="evenodd" d="M3.79639 7.11894H4.11271V7.62742H3.79639V7.11894ZM5.0615 6.10193H5.69421V6.61052H5.06156L5.0615 6.10193Z" fill="#B20000"/>
<path fill-rule="evenodd" clip-rule="evenodd" d="M5.37744 5.59351H6.32653V6.10198H5.37744V5.59351Z" fill="#B20000"/>
<path fill-rule="evenodd" clip-rule="evenodd" d="M6.0105 6.10193H6.6432V6.61052H6.0105V6.10193Z" fill="#B20000"/>
<path fill-rule="evenodd" clip-rule="evenodd" d="M5.37744 6.61047H6.32653V7.11907H5.37744V6.61047Z" fill="#B20000"/>
<path fill-rule="evenodd" clip-rule="evenodd" d="M5.69446 7.11893H6.01089V7.6274H5.69446V7.11893ZM5.69446 5.08496H6.01089V5.59355H5.69446V5.08496ZM0 6.10191H0.632763V6.61051H0V6.10191Z" fill="#B20000"/>
<path fill-rule="evenodd" clip-rule="evenodd" d="M0.316162 5.59351H1.26525V6.10198H0.316162V5.59351Z" fill="#B20000"/>
<path fill-rule="evenodd" clip-rule="evenodd" d="M0.948975 6.10193H1.58174V6.61052H0.948975V6.10193Z" fill="#B20000"/>
<path fill-rule="evenodd" clip-rule="evenodd" d="M0.316162 6.61047H1.26525V7.11907H0.316162V6.61047Z" fill="#B20000"/>
<path fill-rule="evenodd" clip-rule="evenodd" d="M0.632118 7.11893H0.948441V7.6274H0.632118V7.11893ZM0.632118 5.08496H0.948441V5.59355H0.632118V5.08496ZM0.316088 9.15277H1.5815V9.66125H0.316088V9.15277ZM1.89817 9.15277H3.16358V9.66125H1.89817V9.15277ZM3.47938 9.15277H4.74484V9.66125H3.47932L3.47938 9.15277ZM5.06146 9.15277H6.32687V9.66125H5.06146V9.15277ZM2.53035 10.1697H4.11214V10.6783H2.53035V10.1697ZM0.316088 10.1697H1.89788V10.6783H0.316088V10.1697ZM4.74543 10.1697H6.32722V10.6783H4.74543V10.1697ZM6.32663 12.2036H6.64295V12.7121H6.32669L6.32663 12.2036ZM0 12.2036H0.316323V12.7121H0V12.2036ZM0.316088 29.4918H0.632411V28.9833H0.316088V29.4918ZM1.26517 29.4918H2.21426V28.9833H1.26517V29.4918Z" fill="#B20000"/>
<path fill-rule="evenodd" clip-rule="evenodd" d="M1.5813 29.9999H1.89762V29.4914H1.58136L1.5813 29.9999ZM3.16332 29.9999H3.47976V29.4914H3.16332V29.9999ZM4.4285 29.4919H5.37764V28.9834H4.4285V29.4919Z" fill="#B20000"/>
<path fill-rule="evenodd" clip-rule="evenodd" d="M4.7455 29.9998H5.06182V29.4913H4.7455V29.9998ZM0.949159 28.9831H1.58192V28.4746H0.949159V28.9831ZM1.89824 28.9831H2.53101V28.4746H1.89824V28.9831ZM4.11245 28.9831H4.74521V28.4746H4.11245V28.9831ZM5.06153 28.9831H5.69424V28.4746H5.06159L5.06153 28.9831ZM2.21433 28.4744H2.84704V27.9659H2.21433V28.4744ZM3.79642 28.4744H4.42906V27.9659H3.79647L3.79642 28.4744ZM5.37762 28.4744H6.01032V27.9659H5.37762V28.4744ZM6.01068 29.4918H6.32694V28.9833H6.01062L6.01068 29.4918ZM0.316162 27.9664H0.948925V27.4579H0.316162V27.9664Z" fill="#B20000"/>
<path fill-rule="evenodd" clip-rule="evenodd" d="M2.53031 27.9664H3.16301V27.4579H2.53031V27.9664ZM5.69442 27.9664H6.32718V27.4579H5.69442V27.9664ZM0.63208 26.441H1.26484V25.9324H0.63208V26.441ZM0.949047 25.9322H1.58181V25.4238H0.949047V25.9322ZM2.21422 26.441H2.84693V25.9324H2.21422V26.441ZM1.89813 25.9322H2.5309V25.4238H1.89813V25.9322ZM1.26514 25.4235H2.21422V24.915H1.26514V25.4235Z" fill="#B20000"/>
<path fill-rule="evenodd" clip-rule="evenodd" d="M1.5813 24.9156H1.89762V24.4071H1.58136L1.5813 24.9156ZM3.79644 26.4411H4.42908V25.9325H3.7965L3.79644 26.4411ZM4.11247 25.9323H4.74523V25.4239H4.11247V25.9323ZM5.37764 26.4411H6.01035V25.9325H5.37764V26.4411ZM5.06155 25.9323H5.69426V25.4239H5.06161L5.06155 25.9323ZM4.4285 25.4236H5.37764V24.9151H4.4285V25.4236Z" fill="#B20000"/>
<path fill-rule="evenodd" clip-rule="evenodd" d="M4.74543 24.9155H5.06175V24.407H4.74543V24.9155ZM3.16323 25.4235H3.47967V24.915H3.16323V25.4235ZM0 25.4235H0.316323V24.915H0V25.4235ZM6.32663 25.4235H6.64295V24.915H6.32669L6.32663 25.4235ZM1.5812 22.8814H1.89753V22.3728H1.58126L1.5812 22.8814Z" fill="#B20000"/>
<path fill-rule="evenodd" clip-rule="evenodd" d="M1.26506 22.3734H2.21415V21.8648H1.26506V22.3734ZM0.948975 21.8647H2.53082V21.3561H0.948975V21.8647ZM4.74532 22.8814H5.06164V22.3728H4.74532V22.8814Z" fill="#B20000"/>
<path fill-rule="evenodd" clip-rule="evenodd" d="M4.4284 22.3734H5.37755V21.8648H4.4284V22.3734ZM4.11237 21.8647H5.69416V21.3561H4.11243L4.11237 21.8647ZM4.4284 19.3226H6.01025V18.814H4.4284V19.3226ZM3.79634 21.3559H6.01084V20.8475H3.79634V21.3559ZM0.632118 21.3559H2.84661V20.8475H0.632118V21.3559ZM0.949086 18.8139H1.89817V18.3051H0.949086V18.8139ZM0.632118 19.3226H2.21391V18.814H0.632177L0.632118 19.3226ZM5.06146 20.3393H6.64331V19.8307H5.06146V20.3393ZM4.74543 18.8139H5.69446V18.3053H4.74543V18.8139ZM0 20.3393H1.58185V19.8307H0V20.3393ZM2.84726 19.3226H3.79634V18.814H2.84726V19.3226ZM3.16323 18.8139H3.47967V18.3053H3.16323V18.8139ZM2.21426 20.3393H4.42875V19.8307H2.21426V20.3393ZM3.47937 27.9664H4.11214V27.4579H3.47937V27.9664ZM2.84726 27.4576H3.79634V26.9492H2.84726V27.4576ZM2.53035 26.949H3.16305V26.4404H2.53035V26.949ZM3.47937 26.949H4.11214V26.4404H3.47937V26.949ZM0 27.4576H0.632763V26.9492H0V27.4576ZM0.316088 26.949H0.948851V26.4404H0.316088V26.949ZM6.0106 27.4576H6.64331V26.9492H6.0106V27.4576ZM5.69446 26.949H6.32722V26.4404H5.69446V26.949ZM0 22.3734H0.316323V21.8648H0V22.3734ZM6.32663 22.3734H6.64295V21.8648H6.32669L6.32663 22.3734ZM2.53035 17.7971H3.16305V17.2885H2.53035V17.7971ZM3.47937 17.7971H4.11214V17.2885H3.47937V17.7971ZM2.21426 17.2884H2.84696V16.7798H2.21426V17.2884ZM3.79634 17.2884H4.42899V16.7798H3.7964L3.79634 17.2884ZM1.89817 16.7797H2.53093V16.2711H1.89817V16.7797ZM4.11237 16.7797H4.74513V16.2711H4.11237V16.7797Z" fill="#B20000"/>
<path fill-rule="evenodd" clip-rule="evenodd" d="M1.58109 16.2717H2.2138V15.7631H1.58115L1.58109 16.2717ZM4.42829 16.2717H5.06117V15.7631H4.42829V16.2717ZM0.948975 15.763H1.89806V15.2544H0.948975V15.763ZM4.74532 15.763H5.69434V15.2544H4.74532V15.763ZM5.37743 16.2717H6.01014V15.7631H5.37743V16.2717Z" fill="#B20000"/>
<path fill-rule="evenodd" clip-rule="evenodd" d="M5.69442 16.7798H6.32718V16.2712H5.69442V16.7798ZM6.01056 17.2885H6.64327V16.7799H6.01056V17.2885ZM0.63208 16.2718H1.26484V15.7632H0.63208V16.2718Z" fill="#B20000"/>
<path fill-rule="evenodd" clip-rule="evenodd" d="M0.316088 16.7797H0.948851V16.2711H0.316088V16.7797ZM0 17.2884H0.632763V16.7798H0V17.2884ZM1.26517 15.2544H1.5815V14.746H1.26517V15.2544ZM3.16323 16.7797H3.47967V16.2711H3.16323V16.7797ZM3.16323 22.3734H3.47967V21.8648H3.16323V22.3734ZM1.5812 27.4576H1.89753V26.9492H1.58126L1.5812 27.4576ZM4.74543 27.4576H5.06175V26.9492H4.74543V27.4576ZM2.84726 23.8988H3.79634V23.3903H2.84726V23.8988ZM2.21426 23.39H3.16323V22.8816H2.21432L2.21426 23.39ZM2.53035 22.8814H2.84661V22.3728H2.53035V22.8814ZM1.89817 23.8988H2.53093V23.3903H1.89817V23.8988Z" fill="#B20000"/>
<path fill-rule="evenodd" clip-rule="evenodd" d="M2.21436 24.4068H3.16332V23.8983H2.21441L2.21436 24.4068ZM2.53044 24.9155H2.84671V24.407H2.53044V24.9155ZM3.47947 24.4068H4.4285V23.8983H3.47953L3.47947 24.4068ZM3.79644 24.9155H4.11276V24.407H3.79644V24.9155Z" fill="#B20000"/>
<path fill-rule="evenodd" clip-rule="evenodd" d="M4.11249 23.8988H4.74525V23.3903H4.11249V23.8988ZM3.47949 23.39H4.42852V22.8816H3.47955L3.47949 23.39ZM3.79646 22.8814H4.11278V22.3728H3.79646V22.8814ZM5.06158 23.8988H5.69428V23.3903H5.06163L5.06158 23.8988Z" fill="#B20000"/>
<path fill-rule="evenodd" clip-rule="evenodd" d="M5.37744 24.4068H6.32653V23.8983H5.37744V24.4068Z" fill="#B20000"/>
<path fill-rule="evenodd" clip-rule="evenodd" d="M6.0106 23.8988H6.64331V23.3903H6.0106V23.8988ZM5.37755 23.39H6.32663V22.8816H5.37755V23.39ZM5.69446 22.8814H6.01089V22.3728H5.69446V22.8814ZM5.69446 24.9155H6.01089V24.407H5.69446V24.9155ZM0 23.8988H0.632763V23.3903H0V23.8988Z" fill="#B20000"/>
<path fill-rule="evenodd" clip-rule="evenodd" d="M0.316162 24.4068H1.26525V23.8983H0.316162V24.4068Z" fill="#B20000"/>
<path fill-rule="evenodd" clip-rule="evenodd" d="M0.949086 23.8988H1.58185V23.3904H0.949086V23.8988ZM0.316088 23.3901H1.26517V22.8817H0.316088V23.3901ZM0.632118 22.8815H0.948441V22.3729H0.632118V22.8815ZM0.632118 24.9156H0.948441V24.4071H0.632118V24.9156ZM0.316088 20.848H1.5815V20.3394H0.316088V20.848ZM1.89817 20.848H3.16358V20.3394H1.89817V20.848ZM3.47938 20.848H4.74484V20.3394H3.47932L3.47938 20.848ZM5.06146 20.848H6.32687V20.3394H5.06146V20.848ZM2.53035 19.8306H4.11214V19.322H2.53035V19.8306ZM0.316088 19.8306H1.89788V19.322H0.316088V19.8306ZM4.74543 19.8306H6.32722V19.322H4.74543V19.8306ZM6.32663 17.7972H6.64295V17.2886H6.32669L6.32663 17.7972ZM0 17.7972H0.316323V17.2886H0V17.7972ZM2.84726 15.2545H3.16358V15.7631H2.84726V15.2545ZM3.47938 15.2545H3.7957V15.7631H3.47938V15.2545ZM3.47938 14.2375H3.7957V14.746H3.47938V14.2375ZM2.84726 14.2375H3.16358V14.746H2.84726V14.2375ZM0.632118 27.9664H1.26488V28.475H0.632118V27.9664ZM5.06146 18.3052H5.37778V17.7966H5.06152L5.06146 18.3052ZM1.26517 18.3052H1.5815V17.7966H1.26517V18.3052ZM2.84708 17.7969H3.79611V18.3054H2.84708V17.7969Z" fill="#B20000"/>
</g>
<defs>
<clipPath id="clip0_1035_4898">
<rect width="30" height="30" rx="15" fill="white"/>
</clipPath>
</defs>
</svg>
