<svg width="30" height="30" viewBox="0 0 30 30" fill="none" xmlns="http://www.w3.org/2000/svg">
<g clip-path="url(#clip0_1035_4906)">
<rect width="30" height="30" rx="15" fill="white"/>
<path d="M-1 3H31V27H-1V3Z" fill="white"/>
<path d="M12.6016 0H17.4016V30H12.6016V0Z" fill="#FF0000"/>
<path d="M-1 12.5996H31V17.3996H-1V12.5996Z" fill="#FF0000"/>
<g style="mix-blend-mode:multiply">
<path fill-rule="evenodd" clip-rule="evenodd" d="M6.34162 21.657C6.39277 20.8158 6.54007 20.0992 6.54007 20.0992C6.54007 20.0992 6.04807 20.1496 5.79922 20.1496C5.55412 20.1496 5.05852 20.0992 5.05852 20.0992C5.05852 20.0992 5.20582 20.8158 5.25697 21.657C4.41572 21.6057 3.69922 21.4585 3.69922 21.4585C3.69922 21.4585 3.74962 21.8289 3.74962 22.1992C3.74962 22.5697 3.69922 22.9399 3.69922 22.9399C3.69922 22.9399 4.41577 22.7928 5.25697 22.7415C5.20582 23.5827 5.05847 24.2992 5.05847 24.2992C5.05847 24.2992 5.42897 24.2488 5.79922 24.2488C6.16972 24.2488 6.54007 24.2992 6.54007 24.2992C6.54007 24.2992 6.39277 23.5827 6.34157 22.7415C7.18267 22.7928 7.89922 22.9399 7.89922 22.9399C7.89922 22.9399 7.84897 22.4479 7.84897 22.1992C7.84897 21.9541 7.89922 21.4585 7.89922 21.4585C7.89922 21.4585 7.18267 21.6057 6.34162 21.657ZM24.7415 7.25697C24.7928 6.41577 24.94 5.69922 24.94 5.69922C24.94 5.69922 24.448 5.74962 24.1992 5.74962C23.9541 5.74962 23.4585 5.69922 23.4585 5.69922C23.4585 5.69922 23.6057 6.41577 23.657 7.25697C22.8157 7.20567 22.0992 7.05852 22.0992 7.05852C22.0992 7.05852 22.1496 7.42887 22.1496 7.79922C22.1496 8.16972 22.0992 8.53992 22.0992 8.53992C22.0992 8.53992 22.8158 8.39277 23.657 8.34147C23.6057 9.18267 23.4585 9.89922 23.4585 9.89922C23.4585 9.89922 23.8289 9.84882 24.1992 9.84882C24.5697 9.84882 24.9399 9.89922 24.9399 9.89922C24.9399 9.89922 24.7928 9.18267 24.7415 8.34147C25.5827 8.39277 26.2992 8.53992 26.2992 8.53992C26.2992 8.53992 26.2488 8.04792 26.2488 7.79922C26.2488 7.55412 26.2992 7.05852 26.2992 7.05852C26.2992 7.05852 25.5827 7.20567 24.7415 7.25697ZM6.34162 7.25697C6.39272 6.41577 6.54007 5.69922 6.54007 5.69922C6.54007 5.69922 6.04807 5.74962 5.79922 5.74962C5.55412 5.74962 5.05852 5.69922 5.05852 5.69922C5.05852 5.69922 5.20582 6.41577 5.25697 7.25697C4.41572 7.20567 3.69922 7.05852 3.69922 7.05852C3.69922 7.05852 3.74962 7.42887 3.74962 7.79922C3.74962 8.16972 3.69922 8.53992 3.69922 8.53992C3.69922 8.53992 4.41577 8.39277 5.25697 8.34147C5.20582 9.18267 5.05847 9.89922 5.05847 9.89922C5.05847 9.89922 5.42897 9.84882 5.79922 9.84882C6.16972 9.84882 6.54007 9.89922 6.54007 9.89922C6.54007 9.89922 6.39277 9.18267 6.34157 8.34147C7.18267 8.39277 7.89922 8.53992 7.89922 8.53992C7.89922 8.53992 7.84897 8.04792 7.84897 7.79922C7.84897 7.55412 7.89922 7.05852 7.89922 7.05852C7.89922 7.05852 7.18267 7.20567 6.34162 7.25697ZM24.7415 21.657C24.7928 20.8158 24.94 20.0992 24.94 20.0992C24.94 20.0992 24.448 20.1496 24.1992 20.1496C23.9541 20.1496 23.4585 20.0992 23.4585 20.0992C23.4585 20.0992 23.6057 20.8158 23.657 21.657C22.8157 21.6057 22.0992 21.4585 22.0992 21.4585C22.0992 21.4585 22.1496 21.8289 22.1496 22.1992C22.1496 22.5697 22.0992 22.9399 22.0992 22.9399C22.0992 22.9399 22.8158 22.7928 23.657 22.7415C23.6057 23.5827 23.4585 24.2992 23.4585 24.2992C23.4585 24.2992 23.8289 24.2488 24.1992 24.2488C24.5697 24.2488 24.9399 24.2992 24.9399 24.2992C24.9399 24.2992 24.7928 23.5827 24.7415 22.7415C25.5827 22.7928 26.2992 22.9399 26.2992 22.9399C26.2992 22.9399 26.2488 22.4479 26.2488 22.1992C26.2488 21.9541 26.2992 21.4585 26.2992 21.4585C26.2992 21.4585 25.5827 21.6057 24.7415 21.657Z" fill="#FF0000"/>
</g>
</g>
<defs>
<clipPath id="clip0_1035_4906">
<rect width="30" height="30" rx="15" fill="white"/>
</clipPath>
</defs>
</svg>
