<svg width="30" height="30" viewBox="0 0 30 30" fill="none" xmlns="http://www.w3.org/2000/svg">
<rect width="30" height="30" rx="15" fill="#6FDCFF"/>
<path fill-rule="evenodd" clip-rule="evenodd" d="M0 4H30V26H0V4Z" fill="#6FDCFF"/>
<path fill-rule="evenodd" clip-rule="evenodd" d="M2.82363 25.4039C2.97607 25.5498 2.92591 25.7953 3.3498 25.7637C3.99696 25.7637 4.01561 25.3766 4.01561 25.1063C4.01561 24.8364 3.05135 24.459 3.00696 24.0618C2.96196 23.6643 3.22952 23.5532 3.4534 23.5532C3.67596 23.5532 3.83224 23.6805 3.83224 23.7915C3.83224 23.9024 3.72096 23.9346 3.56468 23.9346C3.4084 23.9346 3.63157 23.8551 3.49779 23.7915C3.364 23.7278 3.27457 23.8867 3.27457 23.9824C3.27457 24.0776 3.60907 24.1092 3.83224 24.0379C3.87729 24.2522 3.89918 24.2685 3.58652 24.6336C3.8104 24.4905 3.83163 24.459 4.078 24.5384C3.83224 24.3317 4.01622 23.9107 4.02457 23.8034C4.03291 23.6962 3.97765 23.569 3.87729 23.5054C3.69846 23.3465 3.30799 23.3394 3.07385 23.4418C2.73293 23.5905 2.71619 24.0293 2.80563 24.1728L3.75058 25.1202C3.81747 25.2317 3.84058 25.5412 3.43924 25.557C3.0153 25.5886 2.86994 25.0235 2.79471 24.8355C2.69369 25.0408 2.5811 25.6072 2.15721 25.5757C1.75516 25.5599 1.67796 25.2503 1.74485 25.1388L2.71554 24.1728C2.80432 24.0293 2.78758 23.5905 2.44666 23.4418C2.21252 23.3394 1.82271 23.3465 1.64388 23.5054C1.54352 23.569 1.48755 23.6963 1.49594 23.8034C1.50433 23.9106 1.68827 24.3317 1.4425 24.5384C1.68888 24.459 1.71077 24.4905 1.93399 24.6336C1.62133 24.2685 1.64383 24.2522 1.68827 24.0379C1.91149 24.1092 2.2466 24.0776 2.2466 23.9824C2.2466 23.8867 2.15655 23.7279 2.02277 23.7915C1.8896 23.8551 2.11216 23.9346 1.95649 23.9346C1.79955 23.9346 1.68827 23.9025 1.68827 23.7915C1.68827 23.6805 1.84455 23.5532 2.06777 23.5532C2.29099 23.5532 2.55855 23.6643 2.51355 24.0618C2.46916 24.459 1.47982 24.8924 1.47982 25.1623C1.47982 25.4326 1.54868 25.7637 2.19579 25.7637C2.61972 25.7953 2.66988 25.5498 2.82363 25.4039Z" fill="#FFE400"/>
<path fill-rule="evenodd" clip-rule="evenodd" d="M2.77211 19.7342C2.92455 19.5883 3.04998 19.1558 3.47392 19.1873C4.12103 19.1873 4.36614 19.537 4.36614 19.8074C4.36614 20.0772 3.04998 22.2863 3.00564 22.6834C2.96059 23.081 3.2282 23.192 3.45203 23.192C3.67459 23.192 3.83092 23.0647 3.83092 22.9537C3.83092 22.8427 3.71964 22.8106 3.56331 22.8106C3.40698 22.8106 3.63025 22.8901 3.49642 22.9537C3.36259 23.0174 3.2732 22.8585 3.2732 22.7628C3.2732 22.6676 3.6077 22.636 3.83092 22.7073C3.87592 22.493 3.89781 22.4767 3.5852 22.1116C3.80908 22.2547 3.83026 22.2863 4.07664 22.2068C3.83092 22.4135 4.01491 22.8346 4.02325 22.9418C4.03159 23.049 3.97633 23.1762 3.87597 23.2398C3.69714 23.3987 3.30667 23.4059 3.07253 23.3035C2.73161 23.1547 2.71487 22.7159 2.80426 22.5724L4.07598 19.8868C4.14292 19.7753 3.96475 19.4098 3.56331 19.394C3.13942 19.3624 2.99406 19.7969 2.91878 19.9849L3.49642 19.9438C3.49642 19.9438 3.51892 20.0309 3.49642 20.0873C3.19797 20.1064 2.91878 20.1596 2.91878 20.1596L2.89689 20.4456H3.18189L3.15939 20.5725C3.15939 20.5725 2.91878 20.5567 2.89689 20.5725C2.87439 20.5882 2.85189 20.8591 2.85189 20.8591C2.85189 20.8591 2.8075 20.8748 2.75926 20.8748C2.71037 20.8748 2.66598 20.8591 2.66598 20.8591C2.66598 20.8591 2.64348 20.5882 2.62159 20.5725C2.59909 20.5567 2.35848 20.5725 2.35848 20.5725L2.33664 20.4456H2.62159L2.59909 20.1596C2.59909 20.1596 2.31991 20.1064 2.02141 20.0873C1.99956 20.0309 2.02141 19.9438 2.02141 19.9438L2.59909 19.9849C2.52381 19.7969 2.37845 19.3625 1.95517 19.394C1.55312 19.4098 1.37495 19.7754 1.44184 19.8868L2.71422 22.5724C2.803 22.716 2.78626 23.1547 2.44534 23.3034C2.2112 23.4059 1.82134 23.3987 1.64256 23.2398C1.5422 23.1762 1.48623 23.0489 1.49458 22.9418C1.50292 22.8346 1.68691 22.4135 1.44119 22.2068C1.68756 22.2863 1.70945 22.2547 1.93267 22.1116C1.62001 22.4767 1.64251 22.493 1.68691 22.7073C1.91012 22.636 2.24528 22.6676 2.24528 22.7628C2.24528 22.8585 2.15523 23.0174 2.02141 22.9537C1.88828 22.8901 2.11084 22.8106 1.95517 22.8106C1.79819 22.8106 1.68691 22.8427 1.68691 22.9537C1.68691 23.0647 1.84323 23.192 2.06645 23.192C2.28967 23.192 2.55723 23.081 2.51223 22.6834C2.46784 22.2863 1.15173 20.0772 1.15173 19.8074C1.15173 19.5371 1.3968 19.1873 2.04395 19.1873C2.46784 19.1557 2.61836 19.5883 2.77211 19.7342Z" fill="#FFE400"/>
<path fill-rule="evenodd" clip-rule="evenodd" d="M2.77211 18.6396C2.92455 18.7855 3.04998 19.218 3.47392 19.1864C4.12103 19.1864 4.36614 18.8367 4.36614 18.5664C4.36614 18.2965 3.04998 16.0875 3.00559 15.6904C2.96059 15.2928 3.2282 15.1818 3.45203 15.1818C3.67459 15.1818 3.83092 15.309 3.83092 15.42C3.83092 15.531 3.71964 15.5631 3.56331 15.5631C3.40698 15.5631 3.6302 15.4837 3.49642 15.4201C3.36264 15.3565 3.2732 15.5153 3.2732 15.6109C3.2732 15.7062 3.6077 15.7378 3.83092 15.6664C3.87592 15.8808 3.89781 15.8971 3.5852 16.2621C3.80903 16.1191 3.83026 16.0875 4.07664 16.1669C3.83092 15.9602 4.01491 15.5392 4.02325 15.432C4.03159 15.3248 3.97628 15.1976 3.87597 15.1339C3.69714 14.9751 3.30667 14.9679 3.07253 15.0703C2.73156 15.2191 2.71487 15.6579 2.80426 15.8014L4.07598 18.4869C4.14292 18.5984 3.9647 18.964 3.56331 18.9797C3.13942 19.0114 2.99401 18.5768 2.91878 18.3888L3.49642 18.43C3.49642 18.43 3.51892 18.3429 3.49642 18.2865C3.19797 18.2673 2.91878 18.2142 2.91878 18.2142L2.89689 17.9281H3.18189L3.15939 17.8013C3.15939 17.8013 2.91878 17.8171 2.89689 17.8013C2.87439 17.7855 2.85189 17.5147 2.85189 17.5147C2.85189 17.5147 2.8075 17.4989 2.75922 17.4989C2.71037 17.4989 2.66594 17.5147 2.66594 17.5147C2.66594 17.5147 2.64344 17.7855 2.62159 17.8013C2.59909 17.8171 2.35848 17.8013 2.35848 17.8013L2.33659 17.9281H2.62159L2.59909 18.2142C2.59909 18.2142 2.31991 18.2673 2.02141 18.2865C1.99956 18.3429 2.02141 18.43 2.02141 18.43L2.59905 18.3888C2.52381 18.5769 2.37841 19.0113 1.95517 18.9797C1.55312 18.964 1.37495 18.5984 1.44184 18.4869L2.71422 15.8014C2.803 15.6578 2.78626 15.2191 2.44534 15.0703C2.2112 14.9679 1.82134 14.9751 1.64251 15.1339C1.5422 15.1976 1.48623 15.3248 1.49458 15.432C1.50292 15.5392 1.68691 15.9602 1.44119 16.1669C1.68756 16.0875 1.70945 16.1191 1.93262 16.2621C1.62001 15.8971 1.64251 15.8808 1.68691 15.6664C1.91012 15.7378 2.24528 15.7062 2.24528 15.611C2.24528 15.5153 2.15523 15.3564 2.02141 15.42C1.88828 15.4837 2.11084 15.5631 1.95517 15.5631C1.79819 15.5631 1.68691 15.531 1.68691 15.4201C1.68691 15.3091 1.84323 15.1817 2.06645 15.1817C2.28967 15.1817 2.55723 15.2928 2.51223 15.6904C2.46784 16.0875 1.15173 18.2965 1.15173 18.5664C1.15173 18.8367 1.3968 19.1864 2.04395 19.1864C2.46784 19.218 2.61836 18.7855 2.77211 18.6396Z" fill="#FFE400"/>
<path fill-rule="evenodd" clip-rule="evenodd" d="M2.77211 11.3613C2.92455 11.2154 3.04998 10.7829 3.47392 10.8144C4.12103 10.8144 4.36614 11.1642 4.36614 11.4346C4.36614 11.7044 3.04998 13.9134 3.00564 14.3105C2.96059 14.7081 3.2282 14.8191 3.45203 14.8191C3.67459 14.8191 3.83092 14.6918 3.83092 14.5808C3.83092 14.4698 3.71964 14.4378 3.56331 14.4378C3.40698 14.4378 3.63025 14.5172 3.49642 14.5808C3.36259 14.6444 3.2732 14.4856 3.2732 14.3899C3.2732 14.2947 3.6077 14.2632 3.83092 14.3345C3.87592 14.1201 3.89781 14.1038 3.5852 13.7388C3.80908 13.8818 3.83026 13.9134 4.07664 13.834C3.83092 14.0407 4.01491 14.4617 4.02325 14.5689C4.03159 14.676 3.97633 14.8033 3.87597 14.867C3.69714 15.0258 3.30667 15.033 3.07253 14.9306C2.73161 14.7818 2.71487 14.343 2.80426 14.1995L4.07598 11.5139C4.14292 11.4025 3.96475 11.0369 3.56331 11.0211C3.13942 10.9896 2.99406 11.424 2.91878 11.612L3.49642 11.5709C3.49642 11.5709 3.51892 11.6579 3.49642 11.7144C3.19797 11.7336 2.91878 11.7866 2.91878 11.7866L2.89689 12.0728H3.18189L3.15939 12.1996C3.15939 12.1996 2.91878 12.1838 2.89689 12.1996C2.87439 12.2154 2.85189 12.4862 2.85189 12.4862C2.85189 12.4862 2.8075 12.502 2.75926 12.502C2.71037 12.502 2.66598 12.4862 2.66598 12.4862C2.66598 12.4862 2.64348 12.2154 2.62159 12.1996C2.59909 12.1838 2.35848 12.1996 2.35848 12.1996L2.33664 12.0728H2.62159L2.59909 11.7866C2.59909 11.7866 2.31991 11.7336 2.02141 11.7144C1.99956 11.6579 2.02141 11.5709 2.02141 11.5709L2.59909 11.612C2.52381 11.424 2.37845 10.9896 1.95517 11.0211C1.55312 11.0369 1.37495 11.4025 1.44184 11.5139L2.71422 14.1995C2.803 14.343 2.78626 14.7818 2.44534 14.9306C2.2112 15.033 1.82134 15.0258 1.64256 14.867C1.5422 14.8033 1.48623 14.6761 1.49458 14.5689C1.50292 14.4617 1.68691 14.0407 1.44119 13.834C1.68756 13.9134 1.70945 13.8818 1.93267 13.7388C1.62001 14.1038 1.64251 14.1201 1.68691 14.3344C1.91012 14.2632 2.24528 14.2947 2.24528 14.3899C2.24528 14.4856 2.15523 14.6445 2.02141 14.5808C1.88828 14.5172 2.11084 14.4378 1.95517 14.4378C1.79819 14.4378 1.68691 14.4699 1.68691 14.5808C1.68691 14.6918 1.84323 14.8191 2.06645 14.8191C2.28967 14.8191 2.55723 14.7081 2.51223 14.3105C2.46784 13.9134 1.15173 11.7044 1.15173 11.4345C1.15173 11.1642 1.3968 10.8144 2.04395 10.8144C2.46784 10.7828 2.61836 11.2154 2.77211 11.3613Z" fill="#FFE400"/>
<path fill-rule="evenodd" clip-rule="evenodd" d="M2.77211 10.2666C2.92455 10.4125 3.04998 10.845 3.47392 10.8135C4.12103 10.8135 4.36614 10.4637 4.36614 10.1933C4.36614 9.92351 3.04998 7.71448 3.00559 7.31738C2.96059 6.91978 3.2282 6.80877 3.45203 6.80877C3.67459 6.80877 3.83092 6.93605 3.83092 7.04705C3.83092 7.15806 3.71964 7.1901 3.56331 7.1901C3.40698 7.1901 3.6302 7.11067 3.49642 7.04705C3.36264 6.98344 3.2732 7.14225 3.2732 7.23795C3.2732 7.33315 3.6077 7.36473 3.83092 7.29341C3.87592 7.50777 3.89781 7.52404 3.5852 7.8891C3.80903 7.7461 3.83026 7.71448 4.07664 7.79391C3.83092 7.5872 4.01491 7.16618 4.02325 7.05902C4.03159 6.95186 3.97628 6.82458 3.87597 6.76092C3.69714 6.60206 3.30667 6.59491 3.07253 6.6973C2.73156 6.84608 2.71487 7.28484 2.80426 7.42834L4.07598 10.1139C4.14292 10.2254 3.9647 10.5909 3.56331 10.6067C3.13942 10.6383 2.99401 10.2039 2.91878 10.0159L3.49642 10.057C3.49642 10.057 3.51892 9.96989 3.49642 9.91347C3.19797 9.89431 2.91878 9.84119 2.91878 9.84119L2.89689 9.5551H3.18189L3.15939 9.42833C3.15939 9.42833 2.91878 9.44409 2.89689 9.42833C2.87439 9.41251 2.85189 9.14173 2.85189 9.14173C2.85189 9.14173 2.8075 9.12592 2.75922 9.12592C2.71037 9.12592 2.66594 9.14173 2.66594 9.14173C2.66594 9.14173 2.64344 9.41251 2.62159 9.42833C2.59909 9.44409 2.35848 9.42833 2.35848 9.42833L2.33659 9.5551H2.62159L2.59909 9.84119C2.59909 9.84119 2.31991 9.89436 2.02141 9.91347C1.99956 9.96994 2.02141 10.057 2.02141 10.057L2.59905 10.0159C2.52381 10.2039 2.37841 10.6383 1.95517 10.6067C1.55312 10.5909 1.37495 10.2254 1.44184 10.1139L2.71422 7.42839C2.803 7.28484 2.78626 6.84608 2.44534 6.6973C2.2112 6.59491 1.82134 6.60206 1.64251 6.76092C1.5422 6.82458 1.48623 6.95181 1.49458 7.05902C1.50292 7.16622 1.68691 7.5872 1.44119 7.79391C1.68756 7.71448 1.70945 7.74606 1.93262 7.8891C1.62001 7.52404 1.64251 7.50777 1.68691 7.29345C1.91012 7.36473 2.24528 7.33315 2.24528 7.23795C2.24528 7.14225 2.15523 6.98339 2.02141 7.04705C1.88828 7.11067 2.11084 7.1901 1.95517 7.1901C1.79819 7.1901 1.68691 7.15802 1.68691 7.04705C1.68691 6.93609 1.84323 6.80877 2.06645 6.80877C2.28967 6.80877 2.55723 6.91978 2.51223 7.31738C2.46784 7.71448 1.15173 9.92351 1.15173 10.1934C1.15173 10.4637 1.3968 10.8135 2.04395 10.8135C2.46784 10.845 2.61836 10.4125 2.77211 10.2666Z" fill="#FFE400"/>
<path fill-rule="evenodd" clip-rule="evenodd" d="M2.82358 4.59595C2.97607 4.45001 2.92586 4.20453 3.3498 4.23616C3.99691 4.23616 4.01557 4.62322 4.01557 4.89354C4.01557 5.16336 3.05135 5.54089 3.00691 5.93799C2.96191 6.3356 3.22952 6.44661 3.45335 6.44661C3.67591 6.44661 3.83224 6.31933 3.83224 6.20832C3.83224 6.09731 3.72096 6.06527 3.56463 6.06527C3.4083 6.06527 3.63152 6.1447 3.49774 6.20832C3.36396 6.27193 3.27452 6.11312 3.27452 6.01742C3.27452 5.92223 3.60902 5.89065 3.83224 5.96196C3.87724 5.74756 3.89913 5.73128 3.58652 5.36627C3.81035 5.50927 3.83158 5.54089 4.07796 5.46146C3.83224 5.66817 4.01622 6.0892 4.02457 6.19636C4.03291 6.30351 3.9776 6.43079 3.87729 6.49446C3.69846 6.65327 3.30799 6.66046 3.07385 6.55807C2.73288 6.4093 2.71619 5.97053 2.80558 5.82703L3.75058 4.87966C3.81743 4.76819 3.84058 4.45863 3.43919 4.44286C3.0153 4.41124 2.8699 4.97632 2.79466 5.16433C2.69365 4.95908 2.5811 4.39258 2.15716 4.42416C1.75516 4.43998 1.67796 4.74953 1.74485 4.86096L2.71554 5.82698C2.80432 5.97053 2.78758 6.4093 2.44666 6.55807C2.21252 6.66046 1.82266 6.65327 1.64383 6.49446C1.54352 6.43079 1.48755 6.30356 1.4959 6.19636C1.50424 6.08915 1.68822 5.66817 1.4425 5.46146C1.68888 5.54089 1.71077 5.50931 1.93394 5.36627C1.62133 5.73128 1.64383 5.7476 1.68822 5.96192C1.91144 5.89065 2.2466 5.92223 2.2466 6.01742C2.2466 6.11312 2.15655 6.27198 2.02272 6.20832C1.8896 6.1447 2.11216 6.06527 1.95649 6.06527C1.7995 6.06527 1.68822 6.09736 1.68822 6.20832C1.68822 6.31928 1.84455 6.44661 2.06777 6.44661C2.29099 6.44661 2.55855 6.3356 2.51355 5.93799C2.46916 5.54089 1.47982 5.1074 1.47982 4.83753C1.47982 4.56721 1.54863 4.23616 2.19579 4.23616C2.61968 4.20453 2.66988 4.45001 2.82358 4.59595Z" fill="#FFE400"/>
<path d="M20.6967 13.4344C20.6967 11.2556 18.7901 9.48926 16.4382 9.48926C14.0862 9.48926 12.1796 11.2556 12.1796 13.4344V13.4346C12.1796 15.6134 14.0862 17.3797 16.4382 17.3797C18.7901 17.3797 20.6967 15.6134 20.6967 13.4346V13.4344Z" fill="#FFE400"/>
<path fill-rule="evenodd" clip-rule="evenodd" d="M16.2341 7.13654C16.1987 7.1362 16.0072 8.44959 15.9332 8.74477C15.867 9.40173 16.8373 9.37776 16.6785 8.71874L16.2343 7.13654H16.2341ZM16.5758 19.8481C16.6111 19.8507 16.9005 18.5528 16.9964 18.2631C17.1118 17.612 16.142 17.5735 16.251 18.2411L16.5758 19.8481ZM9.79175 13.4105C9.78875 13.4432 11.1883 13.7176 11.5006 13.8079C12.2028 13.9179 12.2491 13.0197 11.5279 13.1174L9.79175 13.4105ZM23.3858 13.5666C23.3873 13.5338 21.9767 13.3086 21.6606 13.2292C20.9541 13.1439 20.9485 14.0431 21.6646 13.9202L23.3858 13.5665V13.5666ZM11.2236 9.254C11.1995 9.27807 12.1188 10.2935 12.3045 10.5429C12.7842 11.0306 13.4184 10.3499 12.7856 10.0149L11.2237 9.25381L11.2236 9.254ZM21.7879 17.6189C21.8096 17.593 20.7987 16.6553 20.5903 16.4218C20.0667 15.9744 19.4987 16.7036 20.1606 16.9865L21.7879 17.6189ZM13.3339 7.83431C13.3016 7.848 13.7324 9.11175 13.8011 9.40804C14.0433 10.0286 14.9101 9.62397 14.4635 9.09042L13.3339 7.83431ZM19.488 19.1999C19.5212 19.1883 19.1862 17.8999 19.1398 17.5999C18.9448 16.9653 18.0497 17.3132 18.4553 17.8742L19.488 19.1999ZM20.9979 8.714C20.9723 8.69125 19.8617 9.52652 19.5895 9.69456C19.0553 10.1311 19.7799 10.7295 20.1516 10.1486L20.9979 8.714ZM11.8465 18.1908C11.8703 18.2151 13.0409 17.4533 13.325 17.3032C13.8905 16.9021 13.2126 16.2585 12.7983 16.814L11.8465 18.1908ZM10.0909 11.1383C10.0764 11.1682 11.2978 11.8581 11.5599 12.0394C12.1827 12.3595 12.5487 11.5267 11.8336 11.3967L10.0909 11.1383ZM22.7945 15.9537C22.8112 15.9248 21.6444 15.1581 21.3966 14.9603C20.7993 14.6009 20.3717 15.4082 21.0754 15.5839L22.7945 15.9537ZM18.7571 7.49677C18.7242 7.48449 18.0281 8.64223 17.8428 8.89196C17.522 9.48103 18.4347 9.78721 18.5468 9.12001L18.7571 7.49677ZM14.0618 19.445C14.0937 19.4594 14.8749 18.3492 15.0785 18.112C15.4427 17.545 14.5551 17.1809 14.3933 17.8392L14.0618 19.445V19.445ZM10.1855 16.0555C10.1983 16.0861 11.5856 15.7627 11.909 15.7167C12.592 15.5296 12.2074 14.7039 11.606 15.0854L10.1855 16.0555ZM22.7975 11.038C22.787 11.0067 21.3788 11.24 21.0528 11.2651C20.3574 11.4078 20.6792 12.2562 21.3077 11.9144L22.7975 11.038Z" fill="#FFE400"/>
<path fill-rule="evenodd" clip-rule="evenodd" d="M17.619 7.22286C17.5844 7.21597 17.1117 8.4668 16.9751 8.74216C16.7676 9.37334 17.7233 9.53066 17.7108 8.85555L17.619 7.22286ZM15.1941 19.7386C15.2281 19.7477 15.7934 18.5303 15.9503 18.2644C16.2047 17.6481 15.2631 17.4296 15.2248 18.1039L15.1941 19.7386ZM14.7053 7.34614C14.6707 7.35318 14.8012 8.67289 14.8003 8.97593C14.8944 9.62997 15.8344 9.40558 15.5205 8.79616L14.7055 7.34614H14.7053ZM18.1078 19.6647C18.1428 19.6599 18.1116 18.335 18.1351 18.0327C18.0903 17.3742 17.1358 17.5376 17.4033 18.1658L18.1078 19.6647ZM12.2929 8.44449C12.2638 8.46328 12.9315 9.6354 13.0563 9.91545C13.4142 10.4859 14.1891 9.94426 13.6467 9.49329L12.2929 8.44449ZM20.5407 18.6081C20.5711 18.5912 19.9929 17.379 19.8894 17.0915C19.5751 16.4994 18.7615 16.9899 19.2688 17.4747L20.5407 18.6081ZM10.5338 10.0856C10.5139 10.1128 11.5908 10.9852 11.8158 11.2052C12.3706 11.6189 12.8844 10.8559 12.2035 10.615L10.5338 10.0856ZM22.2503 16.9155C22.2721 16.8896 21.2632 15.9501 21.0553 15.7161C20.5327 15.2678 19.9631 15.9959 20.6243 16.2799L22.2503 16.9155V16.9155ZM9.76185 12.1348C9.75279 12.1665 11.0794 12.6623 11.37 12.8015C12.0408 13.0231 12.2551 12.146 11.5265 12.126L9.76185 12.1348ZM23.1433 14.9632C23.1547 14.9321 21.8684 14.3522 21.589 14.1946C20.9364 13.9304 20.6569 14.7916 21.3821 14.8584L23.1433 14.9632ZM9.71832 14.6506C9.72323 14.6831 11.1536 14.6634 11.4797 14.6874C12.1908 14.6506 12.0212 13.7651 11.3413 14.0085L9.71832 14.6506ZM23.2368 12.4498C23.2343 12.417 21.8059 12.3447 21.4825 12.2998C20.7703 12.2908 20.8732 13.1849 21.5697 12.9859L23.2368 12.4498ZM10.943 17.2662C10.9628 17.2935 12.2401 16.6968 12.5448 16.5863C13.167 16.2653 12.5968 15.5376 12.1 16.0317L10.943 17.2662ZM22.0646 9.81458C22.047 9.78611 20.728 10.2992 20.4159 10.3898C19.771 10.67 20.2853 11.4326 20.818 10.9717L22.0647 9.81463L22.0646 9.81458ZM13.0268 18.995C13.0567 19.0127 13.9709 17.9935 14.2027 17.7796C14.6351 17.2553 13.7989 16.7987 13.5561 17.4354L13.0268 18.995ZM20.0164 8.05173C19.988 8.03216 18.9995 8.99012 18.7522 9.18853C18.2816 9.68378 19.0816 10.1931 19.3715 9.57352L20.0164 8.05168V8.05173Z" fill="#FFE400"/>
<path fill-rule="evenodd" clip-rule="evenodd" d="M9.93103 16.0619C9.99927 16.3142 10.0163 17.7332 11.5518 19.0893C13.0871 20.4453 15.6974 20.7449 15.6974 20.7449C15.6974 20.7449 15.7144 20.9341 15.5267 20.9498C15.3391 20.9657 14.4519 20.7922 14.0084 20.666C13.5648 20.5399 13.1725 20.3191 13.1213 20.335C13.0701 20.3507 12.9848 20.4926 12.8483 20.4768C12.7119 20.4611 12.0807 19.8461 11.8077 19.6884C11.5347 19.5308 10.6134 18.6005 10.3064 18.1432C9.99927 17.686 9.93103 17.3864 9.82872 17.3864C9.72631 17.3864 9.36807 17.6071 9.36807 17.6071C9.36807 17.6071 9.0439 17.1498 8.7539 16.4245C8.46391 15.6992 8.49798 15.2735 8.56622 15.242C8.63446 15.2104 8.63446 15.778 8.85621 16.2983C9.07808 16.8187 9.3851 16.9764 9.3851 16.9764C9.3851 16.9764 9.18038 16.7084 9.02687 16.0303C8.87335 15.3523 8.82215 14.7058 8.92445 14.5009C9.02687 14.2959 9.12918 14.2329 9.14632 14.2486C9.16335 14.2643 8.95863 14.564 9.09511 15.3365C9.23159 16.1091 9.624 16.7714 9.70927 16.7398C9.79454 16.7084 9.65806 16.5506 9.58982 16.0934C9.52158 15.6362 9.65806 15.3523 9.77751 15.3208C9.82872 15.2735 9.91399 15.8254 9.93103 16.0619ZM8.8561 17.3546C8.56611 17.1023 8.10546 16.2193 8.00315 16.2667C7.90074 16.314 8.75379 17.5754 8.77083 17.6858C8.78786 17.7961 8.97555 18.143 8.83907 18.0957C8.70259 18.0484 7.67898 17.0551 7.79843 17.2443C7.91788 17.4335 8.68555 18.3007 8.63435 18.348C8.58314 18.3953 8.00315 17.8749 7.98612 17.9381C7.96898 18.0011 8.56611 18.5214 8.54908 18.5845C8.53204 18.6476 8.1737 18.2534 8.1737 18.3322C8.1737 18.4111 8.54908 18.8052 8.54908 18.8683C8.54908 18.9314 8.22491 18.5845 8.32732 18.7737C8.42963 18.9629 8.71962 19.1364 8.70259 19.1995C8.68555 19.2626 8.4638 19.1206 8.4638 19.1522C8.4638 19.1836 8.89028 19.3256 8.99258 19.4359C9.095 19.5463 9.79444 20.2874 10.3233 20.6658C10.8522 21.0443 12.3535 21.6907 12.4558 21.6907C12.5582 21.6907 12.7117 21.4858 12.6776 21.4069C12.6435 21.328 11.1763 20.8708 10.7668 20.524C10.3574 20.177 9.35093 19.3571 9.26554 19.3098C9.18027 19.2626 8.95852 19.2783 8.95852 19.231C8.95852 19.1836 9.24851 19.2626 9.23148 19.231C9.21445 19.1995 8.82204 19.0418 8.83907 19.0103C8.8561 18.9787 9.11203 19.0733 9.11203 19.0418C9.11203 19.0103 8.65138 18.7737 8.66852 18.7264C8.68556 18.6791 9.00973 18.8683 9.00973 18.8368C9.00973 18.8052 8.56611 18.5215 8.58314 18.4741C8.60028 18.4268 8.92434 18.6949 8.90731 18.6318C8.89028 18.5688 8.65138 18.2376 8.65138 18.1904C8.65138 18.143 9.04379 18.5372 9.07797 18.4584C9.11203 18.3796 8.94149 17.733 8.95852 17.7173C8.97555 17.7015 9.24731 17.8608 9.29852 17.7661C9.34962 17.6716 9.09795 17.54 8.8561 17.3546ZM13.8904 22.3196C13.6837 22.3447 13.5905 22.2799 13.7078 22.1244C13.8703 22.1133 14.3028 21.9853 14.4556 21.9267C14.6085 21.868 14.7716 21.7838 14.9073 21.6709C15.0427 21.5478 15.1151 21.7498 15.0473 21.8545C14.9911 21.9282 14.7374 22.0608 14.5511 22.1309C14.2804 22.2142 14.0477 22.3294 13.8904 22.3196ZM15.2538 21.8018C15.1173 21.6598 15.2368 21.5653 15.4415 21.4549C15.7485 21.2973 15.6633 21.0923 16.0556 20.9188C16.2263 20.8242 18.6658 19.9097 19.4677 19.4209C20.2695 18.9321 22.5044 17.371 23.1014 16.2988C23.6986 15.2266 23.4086 15.1478 23.4939 15.1005C23.5791 15.0533 23.6645 15.2582 23.6474 15.4948C23.6303 15.7312 23.4426 16.4408 23.4939 16.5039C23.5451 16.567 24.398 15.952 24.7392 15.1952C25.0804 14.4383 25.3534 13.6499 25.524 13.6499C25.6946 13.6499 25.234 14.9429 24.9439 15.4474C24.6539 15.952 24.3127 16.2043 24.398 16.3147C24.4834 16.425 25.3363 15.7628 25.6263 15.274C25.9164 14.7852 26.1894 14.3437 26.2405 14.4383C26.2917 14.5329 25.9675 15.5736 25.507 16.0624C25.0464 16.5511 24.5004 16.8981 24.5857 16.9769C24.671 17.0558 25.2851 17.1346 25.9335 16.7246C26.5817 16.3147 26.65 15.7155 26.7353 15.7471C26.8206 15.7785 26.6499 16.5985 26.0358 17.103C25.4216 17.6076 24.5857 17.6549 24.6199 17.7653C24.6539 17.8757 26.3941 17.3081 26.36 17.4342C26.3259 17.5604 24.108 18.3644 24.0909 18.4433C24.091 18.5064 24.4664 18.5222 25.0634 18.396C25.6605 18.2699 26.2236 17.8442 26.3089 17.9388C26.3258 18.0807 25.8823 18.4276 25.1999 18.5852C24.5175 18.743 24.1763 18.9637 24.1592 19.011C24.1422 19.0582 25.3705 18.869 25.3705 18.9321C25.3705 18.9951 23.7668 19.279 23.7498 19.3579C23.7327 19.4367 25.2851 19.074 25.2511 19.1529C25.2169 19.2317 23.1526 19.7993 23.1697 19.8309C23.1868 19.8624 24.8928 19.484 24.8587 19.547C24.8246 19.6101 21.9755 20.3512 21.9585 20.3985C21.9414 20.4458 24.4663 19.8781 24.4492 19.9254C24.4322 19.9728 23.1356 20.2723 23.1356 20.3039C23.1356 20.3354 24.1763 20.1462 24.1592 20.1935C24.1422 20.2408 21.5319 20.8558 21.4807 20.9503C21.4296 21.045 22.8285 20.698 22.8114 20.8715C22.7944 21.045 19.7918 21.991 19.7747 21.8176C19.7577 21.6441 21.6002 21.2026 21.5831 21.1554C21.5661 21.108 20.5254 21.2657 20.5083 21.1711C20.4913 21.0765 21.1907 20.8715 21.1396 20.8242C21.0884 20.777 20.5595 20.9661 20.6107 20.8558C20.6619 20.7454 21.6514 20.3196 21.6343 20.2881C21.6173 20.2565 21.2761 20.3984 21.3102 20.2881C21.3443 20.1777 23.4597 19.6101 23.4256 19.547C23.3914 19.484 22.4532 19.6889 22.3679 19.7047C22.3338 19.6417 23.6815 19.1843 23.6474 19.1055C23.6133 19.0267 22.9309 19.3736 22.8968 19.279C22.8627 19.1843 24.074 18.7429 24.0057 18.6798C23.9375 18.6167 23.3745 18.8533 23.3063 18.7902C23.238 18.7271 24.4492 17.9388 24.2615 17.9229C24.0739 17.9072 23.8521 18.1596 23.818 18.0019C23.8522 17.7968 24.7734 17.4657 24.5687 17.3081C24.2445 17.2134 23.1356 17.3711 22.675 17.6234C22.2143 17.8757 20.696 19.279 20.3206 19.4997C19.9453 19.7205 18.6828 20.2093 18.4441 20.3039C18.0687 20.43 18.0004 20.6192 17.6252 20.7927C16.9427 20.9662 16.9428 21.1554 16.6186 21.2657C16.4993 21.2973 15.2709 21.8491 15.2538 21.8018ZM13.5308 22.511C13.3261 22.6057 13.1385 22.858 13.2578 22.9525C13.3261 23.0787 13.5309 22.6845 13.7014 22.7002C13.8721 22.716 14.1108 22.7161 14.5715 22.7477C15.0321 22.7792 15.2709 22.653 15.5269 22.6688C15.7828 22.6845 16.3629 22.5426 16.6358 22.5426C16.9088 22.5426 16.9599 22.5741 16.9941 22.4637C17.0281 22.3534 16.141 22.4322 15.7486 22.4165C15.3563 22.4007 14.8615 22.4953 14.5715 22.4953C14.2985 22.4796 13.8208 22.4006 13.5308 22.511Z" fill="#FFE400"/>
<path d="M14.8444 22.3927C14.8444 22.31 14.7603 22.2429 14.6567 22.2429C14.553 22.2429 14.469 22.31 14.469 22.3927V22.3928C14.469 22.4755 14.553 22.5425 14.6567 22.5425C14.7603 22.5425 14.8444 22.4755 14.8444 22.3928V22.3927Z" fill="#FFE400"/>
<path fill-rule="evenodd" clip-rule="evenodd" d="M19.199 22.1007C19.3866 22.0691 19.8877 22.2268 20.2339 22.3056C20.8702 22.5264 22.0467 22.416 22.0467 22.5264C22.0467 22.6368 21.9735 22.7787 21.6927 22.7945C21.4119 22.8102 20.7365 22.6999 20.7551 22.6999C20.7738 22.6999 21.298 22.9206 21.1482 22.9837C20.9984 23.0467 20.5492 22.8575 20.4744 22.9049C20.3996 22.9522 20.8861 23.0467 20.8114 23.0783C20.7365 23.1098 20.3984 23.031 20.2861 23.0468C20.1738 23.0625 20.3808 23.1729 20.2497 23.2202C20.1188 23.2675 19.8986 23.1572 19.805 23.1886C19.7114 23.2203 20.0064 23.3937 19.8754 23.4094C19.7444 23.4252 19.429 23.3306 19.2605 23.3149C19.092 23.2991 19.4262 23.4725 19.314 23.4882C19.2015 23.504 18.8962 23.3622 18.8214 23.3622C18.7466 23.3622 18.8273 23.5513 18.715 23.5513C18.6027 23.5513 18.4705 23.3937 18.4144 23.3937C18.3583 23.3937 18.4155 23.5829 18.3033 23.5829C18.191 23.5829 18.1507 23.3779 18.0572 23.3937C17.9465 23.4095 18.0599 23.6617 17.9102 23.646C17.7605 23.6301 17.7406 23.3779 17.6284 23.3937C17.5159 23.4094 17.6483 23.646 17.5359 23.646C17.4237 23.646 17.4054 23.4094 17.2931 23.3937C17.1809 23.3779 17.2363 23.6144 17.1615 23.6144C17.0867 23.6144 17.0311 23.3937 16.9936 23.3937C16.9563 23.3937 16.9932 23.6144 16.862 23.5986C16.7309 23.5829 16.7317 23.3463 16.6941 23.3621C16.6568 23.3779 16.6561 23.5356 16.5627 23.5356C16.4692 23.5356 16.4695 23.3779 16.4322 23.3937C16.3946 23.4094 16.2632 23.6144 16.1696 23.5829C16.076 23.5513 16.1921 23.3937 16.1547 23.3937C16.1173 23.3937 16.0012 23.504 15.9263 23.4882C15.8514 23.4725 15.9301 23.3464 15.9114 23.3464C15.8927 23.3464 15.7203 23.4252 15.6455 23.4252C15.5707 23.4252 15.3648 23.5356 15.3086 23.4409C15.2525 23.3463 15.4551 23.3463 15.4924 23.2517C15.53 23.1571 15.3835 22.8891 15.5331 22.7945C15.683 22.6999 16.1509 22.9206 16.8434 22.763C18.116 22.4476 19.0982 22.085 19.199 22.1007Z" fill="#FFE400"/>
</svg>
