<svg width="30" height="30" viewBox="0 0 30 30" fill="none" xmlns="http://www.w3.org/2000/svg">
<g clip-path="url(#clip0_1035_5585)">
<rect width="30" height="30" rx="15" fill="white"/>
<path d="M-10 0H40V30H-10V0Z" fill="#FF0000"/>
<path fill-rule="evenodd" clip-rule="evenodd" d="M16.2958 9.16325L16.4645 5.91178C16.4654 5.89726 16.455 5.88402 16.4401 5.88171C16.425 5.8793 16.4108 5.88916 16.4074 5.90388L15.5737 9.03776C15.5711 9.04826 15.5691 9.05837 15.5675 9.0685C15.536 9.26897 15.6729 9.45695 15.8734 9.48845C16.0738 9.51992 16.2618 9.38301 16.2933 9.18254C16.2943 9.17607 16.2952 9.16951 16.2958 9.16325ZM17.1934 9.4376L17.8719 6.25323C17.8751 6.23893 17.8669 6.22424 17.8525 6.21961C17.8379 6.21489 17.8223 6.22235 17.8167 6.23636L16.5 9.19988C16.4958 9.20991 16.4923 9.21952 16.489 9.22937C16.4264 9.4223 16.532 9.62952 16.725 9.69221C16.918 9.75487 17.1252 9.64923 17.1878 9.45625C17.1899 9.44994 17.1917 9.4436 17.1934 9.4376ZM18.0366 9.84986L19.2078 6.81202C19.2132 6.79847 19.2075 6.78264 19.194 6.77574C19.1804 6.76879 19.1638 6.77376 19.156 6.78675L17.3892 9.50601C17.3835 9.51523 17.3785 9.5242 17.3738 9.53341C17.2815 9.71407 17.3532 9.93531 17.5339 10.0276C17.7146 10.1199 17.9359 10.0481 18.0281 9.86743C18.0311 9.86154 18.034 9.85559 18.0366 9.84986ZM18.8044 10.3889L20.4365 7.57176C20.444 7.55917 20.4407 7.54261 20.4286 7.53378C20.4162 7.52474 20.399 7.52702 20.3893 7.53867L18.2188 9.94799C18.2117 9.95625 18.2054 9.96433 18.1993 9.97265C18.0799 10.1366 18.1161 10.3665 18.2802 10.4858C18.4442 10.6052 18.674 10.569 18.7934 10.405C18.7972 10.3996 18.801 10.3942 18.8044 10.3889ZM19.4787 11.0407L21.5294 8.5119C21.5387 8.50062 21.5381 8.48381 21.5274 8.47317C21.5166 8.46226 21.4993 8.46189 21.488 8.47183L18.9689 10.514C18.9606 10.521 18.9531 10.528 18.9458 10.5353C18.8023 10.6788 18.8023 10.9114 18.9458 11.0548C19.0892 11.1983 19.3219 11.1983 19.4653 11.0548C19.47 11.0501 19.4745 11.0453 19.4787 11.0407ZM20.0434 11.7894L22.4627 9.61059C22.4737 9.60089 22.4757 9.58423 22.4668 9.57205C22.4578 9.55963 22.4408 9.5565 22.428 9.5646L19.6218 11.1899C19.6125 11.1955 19.604 11.2012 19.5956 11.2072C19.4316 11.3266 19.3954 11.5564 19.5148 11.7205C19.6342 11.8844 19.8639 11.9207 20.028 11.8013C20.0333 11.7973 20.0385 11.7934 20.0434 11.7894ZM20.4844 12.6175L23.2147 10.844C23.227 10.8362 23.2317 10.8199 23.2248 10.8066C23.2178 10.7929 23.2015 10.7872 23.1876 10.7932L20.1617 11.9594C20.1517 11.9635 20.1423 11.9678 20.1331 11.9725C19.9525 12.0647 19.8807 12.286 19.973 12.4667C20.0653 12.6474 20.2865 12.7191 20.4672 12.6268C20.4731 12.6238 20.4789 12.6206 20.4844 12.6175ZM20.7896 13.505L23.7651 12.1835C23.7785 12.1776 23.7856 12.1624 23.781 12.1481C23.7762 12.1335 23.761 12.1253 23.7463 12.1289L20.5746 12.8043C20.5641 12.8068 20.5542 12.8095 20.5443 12.8127C20.3514 12.8754 20.2457 13.0826 20.3084 13.2756C20.371 13.4685 20.5783 13.5742 20.7712 13.5115C20.7775 13.5095 20.7837 13.5073 20.7896 13.505ZM20.9513 14.4296L24.0977 13.5929C24.1119 13.5893 24.1213 13.5753 24.1189 13.5605C24.1166 13.5453 24.1028 13.5348 24.0877 13.5361L20.8492 13.7037C20.8384 13.7045 20.8282 13.7057 20.818 13.7073C20.6176 13.7388 20.4806 13.9268 20.5122 14.1273C20.5436 14.3277 20.7316 14.4646 20.9321 14.4331C20.9386 14.4321 20.9451 14.4309 20.9513 14.4296ZM20.9669 15.3671L24.2051 15.0291C24.2196 15.0277 24.2311 15.0153 24.2311 15.0003C24.2311 14.9849 24.2191 14.9724 24.2041 14.9714L20.9788 14.6343C20.968 14.6334 20.9577 14.6329 20.9474 14.6329C20.7445 14.6329 20.58 14.7974 20.58 15.0003C20.58 15.2032 20.7445 15.3676 20.9474 15.3676C20.954 15.3676 20.9606 15.3675 20.9669 15.3671ZM20.8374 16.2958L24.0888 16.4645C24.1033 16.4654 24.1166 16.455 24.1189 16.4401C24.1213 16.425 24.1114 16.4107 24.0967 16.4074L20.9629 15.5736C20.9523 15.5711 20.9422 15.5691 20.9321 15.5674C20.7316 15.536 20.5436 15.6729 20.5122 15.8734C20.4806 16.0738 20.6176 16.2618 20.818 16.2933C20.8246 16.2943 20.8311 16.2952 20.8374 16.2958ZM20.563 17.1933L23.7474 17.8718C23.7616 17.875 23.7763 17.8668 23.781 17.8525C23.7857 17.8379 23.7782 17.8223 23.7642 17.8167L20.8007 16.5C20.7907 16.4958 20.7811 16.4922 20.7712 16.489C20.5783 16.4264 20.371 16.532 20.3084 16.725C20.2457 16.9179 20.3514 17.1251 20.5443 17.1878C20.5507 17.1899 20.557 17.1917 20.563 17.1933ZM20.1507 18.0365L23.1886 19.2078C23.2022 19.2132 23.2179 19.2074 23.2248 19.194C23.2318 19.1803 23.2268 19.1637 23.2138 19.156L20.4946 17.3892C20.4854 17.3834 20.4764 17.3784 20.4672 17.3738C20.2865 17.2815 20.0653 17.3532 19.973 17.5339C19.8807 17.7146 19.9525 17.9358 20.1331 18.0281C20.1391 18.0311 20.145 18.0339 20.1507 18.0365ZM19.6117 18.8044L22.4289 20.4365C22.4414 20.4439 22.458 20.4407 22.4668 20.4285C22.4759 20.4162 22.4736 20.399 22.462 20.3893L20.0526 18.2188C20.0444 18.2117 20.0363 18.2053 20.028 18.1993C19.8639 18.0799 19.6342 18.1161 19.5148 18.2801C19.3954 18.4442 19.4316 18.674 19.5956 18.7933C19.601 18.7972 19.6064 18.8009 19.6117 18.8044ZM18.9599 19.4787L21.4887 21.5294C21.5 21.5387 21.5168 21.538 21.5274 21.5274C21.5383 21.5166 21.5387 21.4992 21.5287 21.4879L19.4866 18.9688C19.4795 18.9606 19.4726 18.953 19.4653 18.9458C19.3219 18.8023 19.0892 18.8023 18.9458 18.9458C18.8023 19.0892 18.8023 19.3218 18.9458 19.4652C18.9505 19.47 18.9553 19.4744 18.9599 19.4787ZM18.2112 20.0434L20.39 22.4627C20.3997 22.4736 20.4164 22.4756 20.4286 22.4668C20.441 22.4577 20.4441 22.4407 20.436 22.428L18.8107 19.6217C18.8051 19.6125 18.7994 19.6039 18.7934 19.5956C18.674 19.4315 18.4442 19.3954 18.2802 19.5148C18.1161 19.6341 18.0799 19.8639 18.1993 20.0279C18.2032 20.0333 18.2072 20.0385 18.2112 20.0434ZM17.3831 20.4843L19.1566 23.2147C19.1644 23.227 19.1806 23.2316 19.194 23.2248C19.2077 23.2178 19.2134 23.2015 19.2074 23.1876L18.0412 20.1617C18.0371 20.1516 18.0328 20.1423 18.0281 20.1332C17.9359 19.9525 17.7146 19.8807 17.5339 19.973C17.3532 20.0653 17.2815 20.2865 17.3738 20.4672C17.3768 20.4731 17.3799 20.4789 17.3831 20.4843ZM16.4956 20.7896L17.8171 23.7651C17.8229 23.7785 17.8382 23.7856 17.8525 23.781C17.8671 23.7762 17.8753 23.7609 17.8716 23.7463L17.1963 20.5746C17.1938 20.564 17.191 20.5541 17.1878 20.5443C17.1252 20.3514 16.918 20.2457 16.725 20.3083C16.532 20.371 16.4264 20.5782 16.489 20.7712C16.4911 20.7776 16.4933 20.7837 16.4956 20.7896ZM15.5711 20.9512L16.4077 24.0977C16.4113 24.1118 16.4253 24.1213 16.4401 24.1189C16.4553 24.1165 16.4658 24.1027 16.4645 24.0877L16.2969 20.8492C16.2961 20.8384 16.2949 20.8281 16.2933 20.818C16.2618 20.6175 16.0738 20.4806 15.8734 20.5121C15.673 20.5436 15.536 20.7316 15.5675 20.9321C15.5686 20.9386 15.5697 20.9451 15.5711 20.9512ZM14.6335 20.9669L14.9715 24.205C14.9729 24.2196 14.9853 24.231 15.0003 24.231C15.0157 24.231 15.0282 24.2192 15.0292 24.2041L15.3663 20.9787C15.3672 20.9679 15.3677 20.9576 15.3677 20.9473C15.3677 20.7445 15.2032 20.58 15.0003 20.58C14.7974 20.58 14.633 20.7445 14.633 20.9473C14.633 20.954 14.6332 20.9605 14.6335 20.9669ZM13.7048 20.8373L13.5361 24.0887C13.5352 24.1033 13.5456 24.1165 13.5605 24.1189C13.5757 24.1213 13.5899 24.1114 13.5932 24.0967L14.4269 20.9628C14.4295 20.9523 14.4315 20.9422 14.4331 20.9321C14.4646 20.7316 14.3277 20.5436 14.1273 20.5121C13.9268 20.4806 13.7388 20.6175 13.7074 20.818C13.7063 20.8245 13.7055 20.8311 13.7048 20.8373ZM12.8072 20.563L12.1288 23.7474C12.1256 23.7616 12.1338 23.7763 12.1481 23.781C12.1627 23.7857 12.1783 23.7782 12.1839 23.7642L13.5006 20.8007C13.5048 20.7906 13.5084 20.781 13.5116 20.7712C13.5742 20.5782 13.4686 20.371 13.2756 20.3083C13.0827 20.2457 12.8754 20.3514 12.8128 20.5443C12.8107 20.5506 12.8089 20.5569 12.8072 20.563ZM11.9641 20.1507L10.7928 23.1886C10.7874 23.2021 10.7932 23.2179 10.8066 23.2248C10.8203 23.2318 10.8369 23.2269 10.8446 23.2138L12.6114 20.4946C12.6172 20.4853 12.6222 20.4763 12.6269 20.4672C12.7191 20.2865 12.6474 20.0653 12.4667 19.973C12.286 19.8807 12.0647 19.9525 11.9725 20.1332C11.9695 20.139 11.9667 20.145 11.9641 20.1507ZM11.1962 19.6117L9.56412 22.4288C9.55666 22.4414 9.5599 22.4579 9.57207 22.4668C9.58447 22.4758 9.60162 22.4736 9.61131 22.4619L11.7818 20.0526C11.7889 20.0444 11.7953 20.0363 11.8013 20.0279C11.9207 19.8639 11.8845 19.6341 11.7205 19.5148C11.5565 19.3954 11.3267 19.4315 11.2073 19.5956C11.2034 19.601 11.1997 19.6064 11.1962 19.6117ZM10.5219 18.9599L8.47121 21.4887C8.46188 21.4999 8.46253 21.5167 8.47319 21.5274C8.48403 21.5383 8.50134 21.5387 8.51268 21.5288L11.0317 19.4866C11.04 19.4795 11.0475 19.4726 11.0548 19.4652C11.1983 19.3218 11.1983 19.0892 11.0548 18.9458C10.9114 18.8023 10.6788 18.8023 10.5354 18.9458C10.5306 18.9504 10.5261 18.9553 10.5219 18.9599ZM9.9572 18.2111L7.53789 20.3899C7.52694 20.3997 7.52496 20.4164 7.53381 20.4285C7.54288 20.4409 7.55986 20.4441 7.57262 20.436L10.3788 18.8107C10.3881 18.805 10.3966 18.7994 10.405 18.7933C10.569 18.674 10.6052 18.4442 10.4859 18.2801C10.3665 18.1161 10.1367 18.0799 9.97267 18.1993C9.96731 18.2032 9.96209 18.2072 9.9572 18.2111ZM9.51626 17.3831L6.78593 19.1566C6.77359 19.1644 6.76898 19.1806 6.77582 19.194C6.78283 19.2076 6.79916 19.2134 6.81304 19.2074L9.83892 18.0412C9.84897 18.037 9.85829 18.0328 9.86746 18.0281C10.0482 17.9358 10.1199 17.7146 10.0276 17.5339C9.93536 17.3532 9.7141 17.2815 9.53343 17.3738C9.52751 17.3767 9.52173 17.3799 9.51626 17.3831ZM9.211 16.4955L6.2355 17.8171C6.22212 17.8229 6.215 17.8382 6.21967 17.8525C6.22441 17.8671 6.23963 17.8753 6.25429 17.8716L9.42603 17.1963C9.43656 17.1938 9.44648 17.191 9.45631 17.1878C9.64926 17.1251 9.75489 16.9179 9.69223 16.725C9.6296 16.532 9.42235 16.4264 9.22939 16.489C9.22309 16.4911 9.21689 16.4933 9.211 16.4955ZM9.04937 15.5711L5.9029 16.4077C5.88877 16.4113 5.87936 16.4253 5.8817 16.4401C5.88408 16.4553 5.89784 16.4658 5.91289 16.4644L9.1514 16.2969C9.16224 16.296 9.1724 16.2949 9.18262 16.2933C9.38303 16.2618 9.52 16.0738 9.48847 15.8734C9.45701 15.6729 9.26902 15.536 9.06856 15.5674C9.06199 15.5685 9.05554 15.5697 9.04937 15.5711ZM9.03373 14.6335L5.79555 14.9715C5.78098 14.9728 5.76953 14.9852 5.76953 15.0003C5.76953 15.0156 5.78149 15.0282 5.79656 15.0292L9.02184 15.3663C9.03264 15.3672 9.04292 15.3676 9.05325 15.3676C9.25609 15.3676 9.42059 15.2032 9.42059 15.0003C9.42059 14.7974 9.25609 14.6329 9.05325 14.6329C9.04661 14.6329 9.04002 14.6331 9.03373 14.6335ZM9.16328 13.7047L5.91186 13.5361C5.89729 13.5352 5.88404 13.5456 5.8817 13.5605C5.87933 13.5756 5.88918 13.5898 5.90393 13.5932L9.03776 14.4269C9.04831 14.4295 9.05839 14.4315 9.06856 14.4331C9.26902 14.4646 9.45701 14.3277 9.48847 14.1273C9.52 13.9268 9.38303 13.7388 9.18262 13.7073C9.17607 13.7063 9.16955 13.7054 9.16328 13.7047ZM9.4376 12.8072L6.25326 12.1287C6.23899 12.1255 6.2243 12.1337 6.21967 12.1481C6.21492 12.1627 6.22243 12.1783 6.23644 12.1838L9.19994 13.5006C9.20996 13.5047 9.21957 13.5083 9.22939 13.5115C9.42235 13.5742 9.6296 13.4685 9.69223 13.2756C9.75489 13.0826 9.64926 12.8754 9.45631 12.8127C9.44997 12.8107 9.44366 12.8089 9.4376 12.8072ZM9.84989 11.9641L6.81206 10.7927C6.79852 10.7873 6.78269 10.7932 6.77582 10.8066C6.76884 10.8202 6.77381 10.8368 6.78679 10.8446L9.50607 12.6114C9.51528 12.6171 9.52421 12.6221 9.53343 12.6268C9.7141 12.7191 9.93536 12.6474 10.0276 12.4667C10.1199 12.286 10.0482 12.0647 9.86746 11.9725C9.86156 11.9694 9.85561 11.9667 9.84989 11.9641ZM10.3889 11.1962L7.57176 9.56404C7.5592 9.55659 7.54267 9.55987 7.53381 9.57208C7.52476 9.58443 7.52705 9.60159 7.5387 9.61126L9.94807 11.7818C9.95631 11.7888 9.96432 11.7952 9.97267 11.8013C10.1367 11.9207 10.3665 11.8845 10.4859 11.7205C10.6052 11.5564 10.569 11.3266 10.405 11.2073C10.3996 11.2034 10.3942 11.1997 10.3889 11.1962ZM11.0407 10.5219L8.5119 8.47118C8.50064 8.46189 8.4838 8.46253 8.47319 8.47317C8.4623 8.48403 8.46191 8.50129 8.47188 8.51268L10.5141 11.0317C10.5211 11.04 10.528 11.0475 10.5354 11.0548C10.6788 11.1983 10.9114 11.1983 11.0548 11.0548C11.1983 10.9114 11.1983 10.6788 11.0548 10.5353C11.0502 10.5306 11.0454 10.5261 11.0407 10.5219ZM11.7895 9.95715L9.61061 7.53783C9.60098 7.52692 9.58425 7.52491 9.57207 7.53378C9.55965 7.5428 9.55658 7.55984 9.56465 7.57263L11.1899 10.3788C11.1955 10.3881 11.2012 10.3966 11.2073 10.405C11.3267 10.569 11.5565 10.6052 11.7205 10.4858C11.8845 10.3665 11.9207 10.1366 11.8013 9.97265C11.7974 9.96723 11.7934 9.96204 11.7895 9.95715ZM12.6176 9.51623L10.8441 6.78587C10.8362 6.77353 10.82 6.76895 10.8066 6.77574C10.7929 6.7828 10.7872 6.79914 10.7932 6.81301L11.9594 9.83889C11.9635 9.84889 11.9678 9.85827 11.9725 9.86743C12.0647 10.0481 12.286 10.1199 12.4667 10.0276C12.6474 9.93531 12.7191 9.71407 12.6269 9.53341C12.6239 9.52746 12.6207 9.52171 12.6176 9.51623ZM13.5051 9.211L12.1835 6.23547C12.1777 6.22204 12.1624 6.21494 12.1481 6.21961C12.1335 6.22435 12.1253 6.2396 12.129 6.25424L12.8043 9.42599C12.8069 9.43654 12.8096 9.44645 12.8128 9.45625C12.8754 9.64923 13.0827 9.75487 13.2756 9.69221C13.4686 9.62952 13.5742 9.4223 13.5116 9.22937C13.5095 9.22303 13.5073 9.21684 13.5051 9.211ZM14.4296 9.04932L13.5929 5.90285C13.5893 5.88874 13.5753 5.87933 13.5605 5.88171C13.5453 5.88405 13.5348 5.89779 13.5362 5.9129L13.7038 9.15135C13.7046 9.16219 13.7057 9.17238 13.7074 9.18254C13.7388 9.38301 13.9268 9.51992 14.1273 9.48845C14.3277 9.45695 14.4646 9.26897 14.4331 9.0685C14.4321 9.06197 14.4309 9.05549 14.4296 9.04932ZM15.3672 9.03371L15.0291 5.79547C15.0277 5.78096 15.0154 5.76953 15.0003 5.76953C14.985 5.76953 14.9724 5.7814 14.9714 5.79654L14.6343 9.02184C14.6334 9.03265 14.633 9.0429 14.633 9.05321C14.633 9.2561 14.7974 9.42057 15.0003 9.42057C15.2032 9.42057 15.3677 9.2561 15.3677 9.05321C15.3677 9.04656 15.3674 9.03999 15.3672 9.03371ZM15.0003 9.42316C18.0804 9.42316 20.5774 11.9201 20.5774 15.0003C20.5774 18.0804 18.0804 20.5774 15.0003 20.5774C11.9202 20.5774 9.42322 18.0804 9.42322 15.0003C9.42322 11.9201 11.9202 9.42316 15.0003 9.42316ZM15.0003 10.0917C17.7112 10.0917 19.9089 12.2894 19.9089 15.0003C19.9089 17.7112 17.7112 19.9089 15.0003 19.9089C12.2894 19.9089 10.0918 17.7112 10.0918 15.0003C10.0918 12.2894 12.2894 10.0917 15.0003 10.0917ZM10.9017 16.4735C11.4036 15.4239 12.0972 14.4963 12.8992 13.7162C13.0245 13.7985 13.1487 13.8838 13.2715 13.9723C12.4293 14.7773 11.6953 15.7736 11.1416 16.9942C11.0507 16.827 10.9707 16.653 10.9017 16.4735ZM15.3466 13.94C15.4604 14.0354 15.5726 14.134 15.683 14.2357C15.8008 14.1391 15.9202 14.0457 16.0411 13.9556C15.9309 13.8558 15.8189 13.7589 15.7053 13.6646C15.5843 13.7534 15.4646 13.8452 15.3466 13.94ZM14.6334 13.3957C14.7571 13.4816 14.8795 13.5706 15.0003 13.6629C15.1211 13.5706 15.2435 13.4816 15.3673 13.3957C15.2469 13.3038 15.1246 13.2145 15.0003 13.1279C14.8766 13.2141 14.7543 13.3033 14.6334 13.3957ZM14.6663 14.5358C14.7795 14.638 14.8909 14.7434 15.0003 14.8523C15.1097 14.7434 15.2212 14.638 15.3344 14.5358C15.2249 14.4312 15.1135 14.3292 15.0003 14.2302C14.8871 14.3292 14.7758 14.4312 14.6663 14.5358ZM13.9595 13.9556C14.0805 14.0457 14.1999 14.1391 14.3176 14.2357C14.4281 14.134 14.5403 14.0354 14.6541 13.94C14.536 13.8452 14.4164 13.7534 14.2953 13.6646C14.1818 13.7589 14.0698 13.8558 13.9595 13.9556ZM16.1553 12.9C16.0337 12.8073 15.9107 12.7175 15.7864 12.6309C15.645 12.7116 15.5045 12.7964 15.3653 12.8849C15.4924 12.9691 15.6181 13.0566 15.7424 13.1473C15.8787 13.0614 16.0164 12.9789 16.1553 12.9ZM16.805 13.4387C16.6959 13.3406 16.5851 13.2449 16.4727 13.1521C16.34 13.2324 16.2083 13.3163 16.0779 13.4034C16.1929 13.4951 16.3062 13.5899 16.418 13.6878C16.5457 13.6015 16.6748 13.5186 16.805 13.4387ZM14.5581 12.4013C14.7042 12.3079 14.8517 12.2186 15.0003 12.1337C15.149 12.2186 15.2965 12.3079 15.4426 12.4013C15.2939 12.4816 15.1464 12.5658 15.0003 12.654C14.8543 12.5658 14.7067 12.4816 14.5581 12.4013ZM13.8454 12.9C13.9669 12.8073 14.0899 12.7175 14.2142 12.6309C14.3557 12.7116 14.4962 12.7964 14.6353 12.8849C14.5082 12.9691 14.3825 13.0566 14.2582 13.1473C14.1219 13.0614 13.9843 12.9789 13.8454 12.9ZM13.1956 13.4387C13.3047 13.3406 13.4155 13.2449 13.5279 13.1521C13.6606 13.2324 13.7923 13.3163 13.9228 13.4034C13.8078 13.4951 13.6944 13.5899 13.5827 13.6878C13.455 13.6015 13.3259 13.5186 13.1956 13.4387ZM11.1478 12.7973C11.6019 12.9793 12.0546 13.2027 12.4966 13.4646C11.8161 14.1131 11.206 14.8862 10.7039 15.8011C10.6433 15.5107 10.6114 15.2097 10.6114 14.9014C10.6114 14.1389 10.8059 13.422 11.1478 12.7973ZM11.5209 12.2264C12.056 12.3994 12.5946 12.6317 13.1215 12.9186C13.0081 13.0095 12.8961 13.1033 12.7858 13.2003C12.3046 12.9345 11.8102 12.7099 11.3116 12.5224C11.3774 12.4207 11.4472 12.322 11.5209 12.2264ZM11.9888 11.7089C12.5938 11.8675 13.2088 12.1045 13.8114 12.413C13.6844 12.4981 13.5586 12.5863 13.4343 12.6779C12.8767 12.3924 12.3041 12.16 11.7301 11.9745C11.8126 11.8824 11.8989 11.7938 11.9888 11.7089ZM12.6714 11.1809C12.6842 11.1857 12.6978 11.1904 12.7121 11.1953C12.7282 11.1993 12.7442 11.2035 12.7603 11.2076C13.3764 11.368 14.003 11.6097 14.6166 11.9255C14.4608 12.0106 14.3063 12.1 14.1535 12.1937C13.5597 11.9045 12.951 11.6739 12.3433 11.4947C12.3381 11.4932 12.3042 11.4815 12.2661 11.4682C12.3955 11.3652 12.5307 11.2691 12.6714 11.1809ZM16.9552 10.971C16.9315 10.9786 16.9143 10.9842 16.9092 10.9863C16.2681 11.1731 15.6256 11.4168 15.0003 11.7262C14.387 11.4227 13.7569 11.1823 13.1279 10.9969C13.1158 10.9933 13.1037 10.9898 13.0915 10.9863C13.0743 10.9818 13.0587 10.9769 13.0441 10.9717C13.6332 10.6779 14.2974 10.5123 15.0003 10.5123C15.7028 10.5123 16.3666 10.6775 16.9552 10.971ZM17.7387 11.4716C17.7224 11.4765 17.7073 11.4808 17.6946 11.4839C17.0745 11.6644 16.4531 11.8986 15.8472 12.1937C15.6943 12.1 15.5399 12.0106 15.384 11.9255C16.0136 11.6015 16.657 11.3554 17.2885 11.1953C17.3041 11.1928 17.3197 11.1891 17.335 11.1845C17.4751 11.2728 17.6099 11.3686 17.7387 11.4716ZM18.2706 11.9745C17.6965 12.16 17.1239 12.3924 16.5663 12.6779C16.4421 12.5863 16.3163 12.4981 16.1892 12.413C16.7919 12.1045 17.4068 11.8675 18.0118 11.7089C18.1018 11.7938 18.1881 11.8824 18.2706 11.9745ZM18.689 12.5224C18.1904 12.7099 17.6961 12.9345 17.2149 13.2003C17.1045 13.1033 16.9925 13.0095 16.8791 12.9186C17.406 12.6317 17.9447 12.3994 18.4798 12.2264C18.5534 12.322 18.6234 12.4207 18.689 12.5224ZM19.2967 15.8011C18.7948 14.8862 18.1845 14.1131 17.5041 13.4646C17.9461 13.2027 18.3988 12.9793 18.8528 12.7973C19.1947 13.4221 19.3892 14.1389 19.3892 14.9014C19.3892 15.2097 19.3573 15.5107 19.2967 15.8011ZM18.859 16.9942C18.3053 15.7736 17.5713 14.7773 16.7291 13.9723C16.852 13.8838 16.9761 13.7985 17.1014 13.7162C17.9035 14.4963 18.5971 15.4238 19.099 16.4735C19.0301 16.653 18.95 16.827 18.859 16.9942ZM18.1754 17.9314C17.6408 16.5533 16.8874 15.438 16.0037 14.5449C16.1196 14.4447 16.2374 14.3476 16.3567 14.2533C17.2713 15.1528 18.0417 16.2451 18.5426 17.4925C18.4297 17.6467 18.3071 17.7934 18.1754 17.9314ZM17.3469 18.6107L17.2885 18.4539C16.8038 17.1448 16.1241 16.0676 15.3224 15.1886C15.4317 15.0756 15.5433 14.9653 15.657 14.8579C16.5749 15.816 17.3291 16.9758 17.7828 18.2955C17.6443 18.4092 17.4987 18.5144 17.3469 18.6107ZM13.1004 18.8588L13.1565 18.6835C13.5609 17.4958 14.2086 16.4372 15.0003 15.5378C15.792 16.4372 16.4398 17.4958 16.8441 18.6835L16.9016 18.8582C16.3264 19.1351 15.6815 19.2903 15.0003 19.2903C14.3198 19.2903 13.6753 19.1354 13.1004 18.8588ZM12.2179 18.2955C12.6716 16.9758 13.4258 15.816 14.3437 14.8579C14.4573 14.9653 14.5689 15.0756 14.6782 15.1886C13.8766 16.0676 13.1968 17.1448 12.7121 18.4539L12.6539 18.6108C12.502 18.5145 12.3564 18.4092 12.2179 18.2955ZM11.458 17.4925C11.959 16.2451 12.7293 15.1528 13.644 14.2533C13.7632 14.3476 13.881 14.4447 13.997 14.5449C13.1133 15.438 12.3599 16.5533 11.8252 17.9314C11.6936 17.7934 11.571 17.6467 11.458 17.4925Z" fill="#FFFF00"/>
</g>
<defs>
<clipPath id="clip0_1035_5585">
<rect width="30" height="30" rx="15" fill="white"/>
</clipPath>
</defs>
</svg>
