<svg width="30" height="30" viewBox="0 0 30 30" fill="none" xmlns="http://www.w3.org/2000/svg">
<g clip-path="url(#clip0_1035_4918)">
<rect width="30" height="30" rx="15" fill="white"/>
<path d="M0 0H40V15H0V0Z" fill="#0038A8"/>
<path d="M0 15H40V30H0V15Z" fill="#CE1126"/>
<path d="M25.9807 15L0 30V0" fill="white"/>
<path d="M9.33203 18.0019C10.9889 18.0019 12.332 16.6588 12.332 15.002C12.332 13.3451 10.9889 12.002 9.33203 12.002C7.67518 12.002 6.33203 13.3451 6.33203 15.002C6.33203 16.6588 7.67518 18.0019 9.33203 18.0019Z" fill="#FCD116"/>
<path d="M3 15.0001L3.39267 15.3928L9.33333 15.0001L3.39267 14.6074L3 15.0001Z" fill="#FCD116"/>
<path d="M3.66406 15.7439L3.9847 16.0645L9.33289 15L3.66406 15.7439Z" fill="#FCD116"/>
<path d="M3.66406 14.2561L3.9847 13.9355L9.33289 15L3.66406 14.2561Z" fill="#FCD116"/>
<path d="M4.85125 10.5218L4.85125 11.0771L9.32959 15.0001L5.40656 10.5218L4.85125 10.5218Z" fill="#FCD116"/>
<path d="M4.79822 11.5182L4.79822 11.9716L9.33268 15.0007L4.79822 11.5182Z" fill="#FCD116"/>
<path d="M5.85022 10.4662L6.30366 10.4662L9.33268 15.0007L5.85022 10.4662Z" fill="#FCD116"/>
<path d="M9.3339 8.66992L8.94123 9.06259L9.3339 15.0033L9.72656 9.06259L9.3339 8.66992Z" fill="#FCD116"/>
<path d="M8.58816 9.33398L8.26752 9.65462L9.33203 15.0028L8.58816 9.33398Z" fill="#FCD116"/>
<path d="M10.0759 9.33398L10.3965 9.65462L9.33203 15.0028L10.0759 9.33398Z" fill="#FCD116"/>
<path d="M13.8122 10.5251L13.2569 10.5251L9.33385 15.0034L13.8122 11.0804L13.8122 10.5251Z" fill="#FCD116"/>
<path d="M12.8178 10.4681L12.3643 10.4681L9.33529 15.0026L12.8178 10.4681Z" fill="#FCD116"/>
<path d="M13.8697 11.5201L13.8697 11.9736L9.33529 15.0026L13.8697 11.5201Z" fill="#FCD116"/>
<path d="M15.6641 15.0019L15.2714 14.6092L9.33073 15.0019L15.2714 15.3945L15.6641 15.0019Z" fill="#FCD116"/>
<path d="M15 14.2581L14.6794 13.9374L9.33118 15.002L15 14.2581Z" fill="#FCD116"/>
<path d="M15 15.7458L14.6794 16.0665L9.33118 15.002L15 15.7458Z" fill="#FCD116"/>
<path d="M13.8128 19.4802L13.8128 18.9248L9.33447 15.0018L13.2575 19.4802L13.8128 19.4802Z" fill="#FCD116"/>
<path d="M13.8658 18.4838L13.8658 18.0303L9.33138 15.0013L13.8658 18.4838Z" fill="#FCD116"/>
<path d="M12.8138 19.5358L12.3604 19.5358L9.33138 15.0013L12.8138 19.5358Z" fill="#FCD116"/>
<path d="M9.33407 21.332L9.72674 20.9394L9.33407 14.9987L8.94141 20.9394L9.33407 21.332Z" fill="#FCD116"/>
<path d="M10.0798 20.668L10.4004 20.3473L9.33594 14.9991L10.0798 20.668Z" fill="#FCD116"/>
<path d="M8.59206 20.668L8.27143 20.3473L9.33594 14.9991L8.59206 20.668Z" fill="#FCD116"/>
<path d="M4.85969 19.4769L5.415 19.4769L9.33803 14.9985L4.85969 18.9216L4.85969 19.4769Z" fill="#FCD116"/>
<path d="M5.85412 19.5338L6.30757 19.5338L9.33659 14.9993L5.85412 19.5338Z" fill="#FCD116"/>
<path d="M4.80213 18.4818L4.80213 18.0284L9.33659 14.9993L4.80213 18.4818Z" fill="#FCD116"/>
<path d="M22.9837 15.002L21.8564 15.394L21.8321 16.5873L21.1111 15.636L19.9688 15.9816L20.6504 15.002H22.9837Z" fill="#FCD116"/>
<path d="M22.9837 15.002L21.8564 14.61L21.8321 13.4166L21.1111 14.368L19.9688 14.0223L20.6504 15.002H22.9837Z" fill="#FCD116"/>
<path d="M1.51594 27.4018L1.74012 26.2295L0.718833 25.6118L1.90321 25.4631L2.17502 24.3009L2.6826 25.3811L1.51594 27.4018Z" fill="#FCD116"/>
<path d="M1.51594 27.4018L2.41909 26.6215L3.46471 27.1971L3.00133 26.0971L3.87185 25.2806L2.6826 25.3811L1.51594 27.4018Z" fill="#FCD116"/>
<path d="M1.50031 2.59963L2.40346 3.37993L3.44908 2.80433L2.98571 3.9044L3.85623 4.72086L2.66698 4.62035L1.50031 2.59963Z" fill="#FCD116"/>
<path d="M1.50031 2.59963L1.7245 3.77193L0.703208 4.38967L1.88759 4.5384L2.1594 5.70053L2.66698 4.62035L1.50031 2.59963Z" fill="#FCD116"/>
</g>
<defs>
<clipPath id="clip0_1035_4918">
<rect width="30" height="30" rx="15" fill="white"/>
</clipPath>
</defs>
</svg>
